<svg width="560" height="583" viewBox="0 0 560 583" fill="none" xmlns="http://www.w3.org/2000/svg">
<g clip-path="url(#clip0_108_345)">
<path d="M512.854 498.347L487.241 521.927L507.596 487.772C491.559 458.69 465.331 433.556 465.331 433.556C465.331 433.556 410.916 485.69 410.916 526.671C410.916 567.651 435.278 581.96 465.331 581.96C495.383 581.96 519.745 567.651 519.745 526.671C519.745 517.549 517.045 507.876 512.854 498.347Z" fill="#F2F2F2"/>
<path d="M480.653 523.204V525.224C480.533 548.704 476.573 567.024 468.803 579.924C468.693 580.114 468.573 580.294 468.463 580.484L467.593 579.954L466.763 579.434C475.383 565.504 478.433 545.814 478.543 525.334C478.553 524.674 478.563 524.004 478.553 523.334C478.523 514.664 477.993 505.894 477.143 497.374C477.083 496.714 477.013 496.044 476.943 495.374C475.763 484.134 474.063 473.394 472.323 464.064C472.203 463.404 472.073 462.744 471.943 462.094C468.933 446.314 465.863 434.884 465.163 432.354C465.083 432.044 465.033 431.874 465.023 431.834L465.973 431.564L465.983 431.554L466.943 431.284C466.953 431.324 467.123 431.894 467.403 432.954C468.473 436.914 471.253 447.664 473.983 461.844C474.103 462.484 474.233 463.144 474.353 463.804C475.773 471.374 477.163 479.834 478.263 488.714C478.543 490.944 478.793 493.144 479.013 495.314C479.093 495.984 479.163 496.654 479.223 497.314C480.144 506.524 480.62 515.154 480.653 523.204Z" fill="white"/>
<path d="M473.984 461.844C473.314 461.934 472.633 462.024 471.943 462.094C470.07 462.287 468.187 462.383 466.304 462.384C458.276 462.394 450.348 460.604 443.104 457.144C442.684 457.674 442.263 458.204 441.833 458.744C449.454 462.464 457.824 464.393 466.304 464.384C468.314 464.383 470.324 464.276 472.323 464.064C473.003 463.994 473.684 463.904 474.354 463.804C479.884 463.011 485.262 461.382 490.304 458.974C489.874 458.424 489.454 457.884 489.044 457.354C484.272 459.584 479.197 461.097 473.984 461.844Z" fill="white"/>
<path d="M479.014 495.314C478.324 495.354 477.634 495.374 476.944 495.374C476.734 495.384 476.514 495.384 476.304 495.384C467.605 495.384 459.035 493.281 451.325 489.253C443.615 485.226 436.993 479.394 432.024 472.254C431.624 472.844 431.224 473.434 430.834 474.034C436.013 481.258 442.839 487.144 450.747 491.205C458.654 495.265 467.415 497.384 476.304 497.384C476.584 497.384 476.864 497.384 477.144 497.374C477.844 497.364 478.534 497.344 479.224 497.314C489.901 496.767 500.195 493.156 508.874 486.914C508.554 486.324 508.234 485.734 507.904 485.144C499.469 491.273 489.428 494.807 479.014 495.314Z" fill="white"/>
<path d="M480.654 523.204C479.954 523.264 479.254 523.304 478.554 523.334C477.804 523.364 477.054 523.384 476.304 523.384C464.615 523.37 453.245 519.571 443.896 512.555C434.547 505.539 427.723 495.683 424.444 484.464C423.994 485.274 423.544 486.074 423.114 486.884C426.808 498.077 433.936 507.822 443.484 514.733C453.033 521.645 464.516 525.371 476.304 525.384C477.054 525.384 477.804 525.374 478.544 525.334C479.254 525.314 479.954 525.274 480.654 525.224C494.793 524.118 507.983 517.68 517.554 507.214C517.344 506.474 517.104 505.744 516.864 505.004C507.62 515.548 494.631 522.077 480.654 523.204Z" fill="white"/>
<path d="M420.747 125.949L142.158 90.4311C141.408 90.3348 140.652 90.2858 139.895 90.2842C139.15 90.2829 138.404 90.33 137.665 90.425C136.926 90.52 136.195 90.6631 135.475 90.8536C134.747 91.048 134.032 91.2892 133.335 91.5758C132.652 91.8562 131.987 92.1778 131.343 92.5388C130.69 92.9025 130.059 93.3045 129.454 93.7426C128.835 94.1921 128.242 94.6764 127.677 95.1931C127.095 95.7248 126.541 96.2874 126.018 96.8783C125.482 97.4869 124.978 98.1225 124.507 98.7827C124.031 99.4511 123.584 100.147 123.167 100.869C122.75 101.593 122.362 102.347 122.005 103.129C121.648 103.912 121.322 104.721 121.028 105.556C120.723 106.42 120.456 107.302 120.226 108.204C119.997 109.106 119.805 110.024 119.651 110.957C119.5 111.89 119.384 112.838 119.304 113.801C119.224 114.764 119.184 115.738 119.184 116.725C119.187 117.71 119.227 118.692 119.304 119.671C119.381 120.65 119.497 121.621 119.651 122.584C119.806 123.551 119.999 124.509 120.228 125.457C120.458 126.404 120.725 127.341 121.03 128.267C121.325 129.162 121.65 130.036 122.008 130.89C122.365 131.745 122.752 132.576 123.169 133.384C123.586 134.193 124.033 134.977 124.509 135.739C124.984 136.504 125.488 137.24 126.021 137.947C126.554 138.654 127.107 139.328 127.68 139.97C128.253 140.608 128.845 141.21 129.456 141.776C130.068 142.342 130.697 142.87 131.345 143.361C131.986 143.847 132.651 144.301 133.337 144.719C134.029 145.141 134.743 145.524 135.478 145.866C136.19 146.198 136.921 146.488 137.667 146.734C138.398 146.975 139.143 147.172 139.898 147.323C140.645 147.472 141.401 147.574 142.161 147.63L420.749 168.008C421.559 168.067 422.374 167.985 423.157 167.767C423.555 167.656 423.943 167.513 424.318 167.339C424.71 167.157 425.087 166.945 425.446 166.707C425.811 166.465 426.159 166.199 426.489 165.912C426.835 165.611 427.163 165.289 427.471 164.949C427.796 164.59 428.103 164.214 428.389 163.822C428.685 163.42 428.97 162.99 429.243 162.534C429.516 162.079 429.774 161.603 430.017 161.108C430.26 160.613 430.487 160.098 430.699 159.565C430.912 159.032 431.109 158.481 431.289 157.911C431.47 157.341 431.634 156.754 431.783 156.151C431.939 155.527 432.074 154.891 432.187 154.244C432.3 153.597 432.397 152.941 432.477 152.275C432.555 151.609 432.613 150.934 432.652 150.25C432.69 149.566 432.71 148.875 432.71 148.176C432.707 147.478 432.688 146.783 432.652 146.091C432.616 145.399 432.557 144.713 432.477 144.032C432.399 143.35 432.303 142.675 432.187 142.004C432.072 141.334 431.937 140.672 431.783 140.016C431.634 139.382 431.47 138.762 431.289 138.157C431.11 137.56 430.914 136.972 430.699 136.393C430.485 135.813 430.257 135.251 430.017 134.707C429.774 134.164 429.516 133.637 429.243 133.126C428.969 132.614 428.685 132.128 428.389 131.667C428.094 131.205 427.788 130.768 427.471 130.355C427.154 129.941 426.826 129.554 426.489 129.194C426.159 128.841 425.811 128.506 425.446 128.19C425.088 127.881 424.712 127.594 424.318 127.332C423.947 127.084 423.559 126.863 423.157 126.67C422.772 126.485 422.373 126.331 421.965 126.208C421.567 126.088 421.159 126.002 420.747 125.949" fill="#E77100" fill-opacity="0.3"/>
<path d="M420.747 206.055L142.158 199.382C140.647 199.345 139.137 199.499 137.665 199.841C136.922 200.014 136.191 200.233 135.475 200.497C134.743 200.767 134.029 201.08 133.335 201.436C132.65 201.787 131.985 202.176 131.343 202.601C130.688 203.034 130.058 203.503 129.454 204.004C128.834 204.518 128.241 205.063 127.677 205.638C127.103 206.222 126.551 206.844 126.018 207.502C125.486 208.161 124.982 208.849 124.507 209.564C124.031 210.279 123.584 211.02 123.167 211.788C122.749 212.556 122.362 213.35 122.005 214.169C121.648 214.989 121.322 215.831 121.028 216.697C120.723 217.593 120.456 218.504 120.226 219.43C119.996 220.355 119.805 221.292 119.651 222.242C119.5 223.191 119.384 224.151 119.304 225.122C119.224 226.093 119.184 227.072 119.184 228.058C119.187 229.044 119.227 230.023 119.304 230.993C119.381 231.963 119.497 232.922 119.651 233.871C119.806 234.815 119.999 235.748 120.228 236.672C120.458 237.596 120.725 238.505 121.03 239.4C121.325 240.268 121.65 241.111 122.008 241.928C122.365 242.745 122.752 243.536 123.169 244.301C123.586 245.067 124.033 245.806 124.509 246.518C124.984 247.227 125.488 247.909 126.021 248.564C126.554 249.219 127.107 249.836 127.68 250.417C128.244 250.988 128.837 251.53 129.456 252.04C130.06 252.538 130.691 253.002 131.345 253.431C131.987 253.852 132.652 254.236 133.337 254.583C134.031 254.934 134.746 255.243 135.478 255.508C136.193 255.768 136.925 255.982 137.667 256.15C138.402 256.317 139.147 256.438 139.898 256.511C140.65 256.583 141.406 256.608 142.161 256.585L420.747 248.109C421.156 248.096 421.564 248.049 421.965 247.968C422.371 247.886 422.769 247.77 423.157 247.623C423.557 247.469 423.946 247.286 424.318 247.074C424.711 246.85 425.088 246.6 425.446 246.325C425.811 246.045 426.159 245.743 426.489 245.422C426.835 245.085 427.162 244.73 427.471 244.358C427.787 243.979 428.093 243.572 428.389 243.136C428.685 242.701 428.97 242.242 429.243 241.76C429.516 241.276 429.774 240.773 430.017 240.253C430.26 239.733 430.487 239.196 430.699 238.64C430.912 238.076 431.109 237.502 431.289 236.918C431.47 236.333 431.634 235.732 431.783 235.112C431.939 234.478 432.074 233.832 432.187 233.173C432.3 232.514 432.397 231.848 432.477 231.173C432.555 230.497 432.613 229.815 432.652 229.127C432.69 228.439 432.71 227.746 432.71 227.047C432.707 226.354 432.688 225.663 432.652 224.972C432.616 224.281 432.557 223.599 432.477 222.925C432.399 222.25 432.303 221.584 432.187 220.928C432.072 220.273 431.937 219.624 431.783 218.982C431.633 218.362 431.468 217.759 431.288 217.171C431.107 216.584 430.911 216.013 430.699 215.46C430.488 214.906 430.261 214.37 430.018 213.85C429.775 213.331 429.517 212.831 429.244 212.349C428.97 211.867 428.686 211.409 428.39 210.977C428.095 210.544 427.789 210.139 427.472 209.76C427.164 209.39 426.836 209.037 426.49 208.702C426.16 208.383 425.812 208.084 425.447 207.806C425.089 207.533 424.712 207.286 424.319 207.065C423.946 206.856 423.557 206.675 423.157 206.525C422.769 206.38 422.371 206.267 421.965 206.187C421.563 206.109 421.156 206.064 420.747 206.055Z" fill="#FF0000" fill-opacity="0.3"/>
<path d="M420.747 281.153L142.158 301.528C141.398 301.583 140.643 301.686 139.895 301.835C139.141 301.985 138.396 302.182 137.665 302.423C136.919 302.669 136.187 302.959 135.475 303.291C134.741 303.633 134.026 304.016 133.335 304.438C132.648 304.857 131.983 305.31 131.343 305.796C130.694 306.291 130.065 306.82 129.454 307.381C128.843 307.946 128.251 308.547 127.677 309.187C127.103 309.827 126.551 310.501 126.018 311.211C125.486 311.922 124.982 312.659 124.507 313.421C124.031 314.182 123.584 314.967 123.167 315.775C122.75 316.584 122.362 317.415 122.005 318.269C121.648 319.123 121.322 319.998 121.028 320.892C120.723 321.817 120.456 322.754 120.226 323.703C119.997 324.652 119.805 325.609 119.651 326.572C119.5 327.536 119.384 328.508 119.304 329.486C119.224 330.464 119.184 331.446 119.184 332.433C119.187 333.419 119.227 334.394 119.304 335.357C119.381 336.32 119.497 337.268 119.651 338.201C119.806 339.137 119.999 340.055 120.228 340.955C120.458 341.856 120.725 342.738 121.03 343.603C121.325 344.44 121.65 345.249 122.008 346.03C122.365 346.813 122.752 347.566 123.169 348.291C123.586 349.015 124.033 349.711 124.509 350.377C124.98 351.037 125.485 351.673 126.021 352.281C126.543 352.872 127.097 353.435 127.68 353.966C128.244 354.483 128.837 354.968 129.456 355.417C130.062 355.855 130.692 356.257 131.345 356.621C131.989 356.982 132.654 357.303 133.337 357.584C134.034 357.87 134.749 358.112 135.478 358.306C136.197 358.496 136.929 358.64 137.667 358.735C138.407 358.83 139.152 358.877 139.898 358.875C140.654 358.874 141.41 358.825 142.161 358.729L420.747 323.219C421.159 323.166 421.567 323.08 421.965 322.96C422.373 322.837 422.772 322.683 423.157 322.498C423.559 322.305 423.947 322.084 424.318 321.836C424.712 321.574 425.088 321.287 425.446 320.978C425.811 320.662 426.159 320.327 426.489 319.974C426.822 319.613 427.15 319.226 427.471 318.813C427.787 318.401 428.093 317.964 428.389 317.501C428.685 317.039 428.97 316.553 429.243 316.042C429.516 315.535 429.774 315.008 430.017 314.461C430.26 313.913 430.487 313.352 430.699 312.775C430.912 312.197 431.109 311.605 431.289 311C431.47 310.395 431.634 309.775 431.783 309.141C431.939 308.485 432.074 307.822 432.187 307.152C432.3 306.481 432.397 305.806 432.477 305.124C432.555 304.443 432.613 303.757 432.652 303.065C432.69 302.373 432.71 301.678 432.71 300.979C432.706 300.284 432.687 299.594 432.651 298.911C432.614 298.227 432.556 297.552 432.476 296.886C432.399 296.218 432.303 295.56 432.187 294.913C432.072 294.266 431.937 293.631 431.783 293.006C431.634 292.402 431.47 291.815 431.289 291.246C431.111 290.677 430.915 290.126 430.7 289.592C430.486 289.059 430.259 288.544 430.018 288.049C429.773 287.558 429.514 287.084 429.24 286.626C428.967 286.169 428.682 285.74 428.387 285.338C428.101 284.947 427.794 284.571 427.468 284.212C427.16 283.872 426.832 283.55 426.486 283.249C426.156 282.961 425.808 282.696 425.444 282.454C425.084 282.216 424.707 282.004 424.316 281.822C423.941 281.648 423.552 281.504 423.154 281.394C422.372 281.175 421.557 281.094 420.747 281.153" fill="#009258" fill-opacity="0.5"/>
<path d="M414.059 344.681L140.888 403.031C140.143 403.19 139.409 403.395 138.689 403.645C137.962 403.898 137.251 404.195 136.56 404.534C135.854 404.88 135.17 405.267 134.51 405.693C133.829 406.133 133.174 406.61 132.547 407.123C131.924 407.632 131.327 408.172 130.76 408.741C130.185 409.32 129.634 409.93 129.106 410.57C128.578 411.213 128.074 411.89 127.593 412.602C127.113 413.314 126.657 414.058 126.227 414.834C125.798 415.612 125.4 416.411 125.033 417.23C124.665 418.05 124.331 418.888 124.028 419.746C123.725 420.605 123.456 421.481 123.219 422.376C122.982 423.271 122.779 424.181 122.61 425.108C122.435 426.066 122.298 427.03 122.201 428.002C122.104 428.974 122.045 429.947 122.024 430.922C122.007 431.899 122.025 432.877 122.08 433.857C122.134 434.837 122.229 435.815 122.364 436.792C122.503 437.769 122.676 438.729 122.884 439.672C123.093 440.615 123.337 441.539 123.617 442.442C123.9 443.348 124.216 444.231 124.567 445.091C124.918 445.952 125.303 446.79 125.724 447.605C126.13 448.393 126.564 449.149 127.025 449.875C127.486 450.601 127.972 451.294 128.485 451.955C128.998 452.615 129.535 453.243 130.098 453.838C130.655 454.427 131.242 454.988 131.857 455.517C132.455 456.031 133.081 456.512 133.731 456.959C134.36 457.394 135.014 457.792 135.689 458.152C136.349 458.504 137.029 458.815 137.725 459.086C138.412 459.356 139.115 459.583 139.83 459.767C140.56 459.956 141.301 460.097 142.049 460.189C142.788 460.279 143.533 460.321 144.277 460.314C145.023 460.307 145.767 460.251 146.506 460.148C147.255 460.043 147.997 459.89 148.727 459.692L419.822 386.351C420.223 386.242 420.615 386.1 420.993 385.928C421.381 385.75 421.754 385.542 422.11 385.306C422.482 385.06 422.836 384.788 423.17 384.491C423.524 384.178 423.858 383.842 424.17 383.487C424.488 383.124 424.787 382.744 425.065 382.35C425.346 381.946 425.617 381.518 425.879 381.065C426.136 380.614 426.379 380.138 426.609 379.64C426.839 379.141 427.054 378.621 427.254 378.078C427.455 377.538 427.639 376.98 427.804 376.405C427.97 375.83 428.119 375.242 428.25 374.642C428.381 374.04 428.495 373.427 428.591 372.802C428.687 372.178 428.765 371.542 428.825 370.894C428.89 370.222 428.933 369.547 428.953 368.867C428.973 368.188 428.977 367.506 428.963 366.82C428.946 366.134 428.91 365.446 428.853 364.756C428.797 364.065 428.721 363.374 428.625 362.681C428.526 361.993 428.412 361.313 428.283 360.641C428.154 359.968 428.003 359.308 427.833 358.659C427.665 358.007 427.479 357.369 427.276 356.744C427.073 356.119 426.853 355.508 426.614 354.911C426.385 354.333 426.141 353.774 425.884 353.235C425.63 352.696 425.36 352.177 425.075 351.677C424.789 351.178 424.494 350.7 424.187 350.242C423.877 349.789 423.556 349.355 423.222 348.939C422.888 348.524 422.548 348.138 422.2 347.781C421.863 347.432 421.508 347.101 421.136 346.79C420.784 346.496 420.415 346.222 420.031 345.971C419.665 345.732 419.284 345.516 418.89 345.327C418.501 345.14 418.098 344.982 417.686 344.855C417.291 344.734 416.886 344.645 416.476 344.59C415.671 344.481 414.853 344.512 414.059 344.681" fill="#7366AC" fill-opacity="0.5"/>
<path d="M268.901 284.886C270.666 287.82 273.447 290.004 276.715 291.023C279.984 292.042 283.513 291.825 286.633 290.414C289.752 289.003 292.245 286.495 293.638 283.368C295.03 280.24 295.226 276.709 294.188 273.447L348.181 162.521L322.336 146.854L275.707 264.679C275.528 264.748 275.353 264.821 275.18 264.897C275.007 264.973 274.835 265.052 274.664 265.135C274.492 265.217 274.322 265.304 274.153 265.396C273.984 265.487 273.816 265.583 273.65 265.683C270.474 267.6 268.19 270.7 267.299 274.3C266.408 277.901 266.984 281.708 268.9 284.885L268.901 284.886Z" fill="#9E616A"/>
<path d="M337.874 205.295L299.517 195.464C299.517 195.464 300.769 192.633 302.804 187.942C304.84 183.252 307.684 176.712 310.883 169.287C314.082 161.862 317.631 153.565 321.098 145.364C324.565 137.163 327.936 129.06 330.776 122.036C333.615 115.013 336.841 110.807 340.083 108.449C342.767 106.41 346.147 105.511 349.488 105.949C352.086 106.336 354.569 107.281 356.766 108.719C357.806 109.366 358.784 110.109 359.687 110.936L368.581 127.11L337.874 205.295Z" fill="#CCCCCC"/>
<mask id="path-12-inside-1_108_345" fill="white">
<path d="M30.9018 196.51C29.9729 196.579 29.0485 196.699 28.1331 196.871C27.2118 197.044 26.3008 197.267 25.4043 197.541C24.494 197.819 23.5995 198.146 22.7247 198.52C21.8293 198.904 20.9546 199.334 20.1042 199.808C19.272 200.276 18.4586 200.785 17.6642 201.335C16.8697 201.885 16.0981 202.475 15.3493 203.107C14.6014 203.737 13.8755 204.408 13.1718 205.122C12.468 205.835 11.7899 206.588 11.1375 207.379C10.485 208.17 9.86667 208.99 9.28244 209.838C8.69821 210.686 8.1501 211.56 7.63812 212.46C7.13094 213.361 6.65664 214.287 6.21527 215.237C5.7739 216.187 5.37266 217.159 5.01154 218.154C4.63517 219.185 4.30574 220.227 4.02325 221.28C3.74077 222.332 3.50523 223.394 3.31665 224.465C3.12726 225.535 2.98523 226.613 2.89053 227.698C2.79584 228.783 2.74851 229.872 2.74854 230.966C2.74854 232.06 2.79587 233.14 2.89053 234.205C2.9852 235.271 3.12723 236.32 3.31665 237.353C3.50524 238.386 3.74077 239.4 4.02325 240.396C4.30573 241.392 4.63397 242.368 5.00793 243.323C5.37226 244.245 5.7735 245.137 6.21167 245.999C6.64478 246.852 7.12044 247.683 7.6369 248.488C8.14527 249.278 8.69414 250.042 9.28125 250.775C9.86277 251.504 10.4823 252.202 11.1374 252.866C11.7817 253.519 12.4608 254.136 13.1718 254.715C13.868 255.282 14.5954 255.81 15.3505 256.296C16.8408 257.255 18.4362 258.04 20.1053 258.636C21.8164 259.247 23.5946 259.651 25.4018 259.839C26.3083 259.933 27.2195 259.973 28.1307 259.96C29.0566 259.947 29.9809 259.881 30.8994 259.764C31.826 259.645 32.7455 259.476 33.6535 259.257C34.5643 259.036 35.4624 258.767 36.3439 258.449C37.2354 258.127 38.1094 257.759 38.9621 257.345C39.8309 256.924 40.6778 256.458 41.4996 255.951C42.2997 255.452 43.0789 254.917 43.8372 254.345C44.5956 253.774 45.3303 253.165 46.0413 252.518C46.7523 251.871 47.4389 251.189 48.1009 250.472C48.763 249.754 49.3994 249.002 50.0101 248.214C50.6248 247.426 51.2034 246.615 51.7459 245.781C52.2884 244.946 52.7964 244.09 53.2699 243.211C53.7433 242.332 54.1815 241.433 54.5844 240.513C54.9872 239.594 55.3544 238.655 55.6858 237.696C56.0293 236.705 56.3298 235.704 56.5874 234.695C56.845 233.687 57.0601 232.671 57.2326 231.648C57.4043 230.624 57.5335 229.594 57.6202 228.56C57.7069 227.526 57.7502 226.487 57.7502 225.443C57.7494 224.4 57.7061 223.37 57.6202 222.352C57.5343 221.335 57.4051 220.332 57.2326 219.343C57.0609 218.356 56.8458 217.383 56.5874 216.425C56.329 215.467 56.0285 214.527 55.6858 213.605C55.3528 212.712 54.9856 211.847 54.5844 211.008C54.1775 210.172 53.7373 209.361 53.2639 208.574C52.3265 207.02 51.2365 205.563 50.0101 204.225C49.4082 203.567 48.7726 202.941 48.1058 202.348C47.4491 201.767 46.7616 201.222 46.0462 200.715C45.3376 200.213 44.6018 199.75 43.8421 199.329C43.083 198.909 42.3009 198.531 41.4996 198.198C39.8451 197.509 38.115 197.018 36.3452 196.735C35.4544 196.593 34.5561 196.504 33.6548 196.467C32.7366 196.43 31.817 196.445 30.9006 196.513"/>
</mask>
<path d="M28.1331 196.871L28.3171 197.854L28.3178 197.854L28.1331 196.871ZM25.4043 197.541L25.1126 196.584L25.1122 196.584L25.4043 197.541ZM22.7247 198.52L23.1183 199.44L23.1185 199.44L22.7247 198.52ZM20.1042 199.808L19.6168 198.935L19.6141 198.937L20.1042 199.808ZM15.3493 203.107L15.9935 203.872L15.9941 203.871L15.3493 203.107ZM11.1375 207.379L10.3659 206.743L10.3659 206.743L11.1375 207.379ZM7.63812 212.46L6.769 211.965L6.76665 211.969L7.63812 212.46ZM5.01154 218.154L5.95092 218.496L5.95146 218.495L5.01154 218.154ZM3.31665 224.465L4.30136 224.639L4.30149 224.638L3.31665 224.465ZM2.74854 230.966H3.74854V230.966L2.74854 230.966ZM3.31665 237.353L4.30039 237.174L4.30024 237.173L3.31665 237.353ZM5.00793 243.323L4.07678 243.687L4.0779 243.69L5.00793 243.323ZM6.21167 245.999L7.10334 245.546L7.10309 245.545L6.21167 245.999ZM7.6369 248.488L6.7951 249.028L6.79592 249.029L7.6369 248.488ZM9.28125 250.775L10.0631 250.152L10.062 250.15L9.28125 250.775ZM11.1374 252.866L10.4256 253.568L10.4258 253.569L11.1374 252.866ZM13.1718 254.715L12.5402 255.49L12.5402 255.49L13.1718 254.715ZM15.3505 256.296L15.8917 255.455L15.8915 255.454L15.3505 256.296ZM20.1053 258.636L20.4418 257.694L20.4415 257.694L20.1053 258.636ZM25.4018 259.839L25.2982 260.834L25.2992 260.834L25.4018 259.839ZM28.1307 259.96L28.1167 258.96L28.1161 258.96L28.1307 259.96ZM30.8994 259.764L30.7729 258.772L30.7722 258.772L30.8994 259.764ZM33.6535 259.257L33.8885 260.229L33.8887 260.229L33.6535 259.257ZM36.3439 258.449L36.683 259.39L36.6833 259.39L36.3439 258.449ZM38.9621 257.345L38.5256 256.445L38.5255 256.446L38.9621 257.345ZM41.4996 255.951L42.0248 256.802L42.0289 256.8L41.4996 255.951ZM46.0413 252.518L46.7142 253.258L46.7142 253.258L46.0413 252.518ZM50.0101 248.214L49.2219 247.598L49.2196 247.601L50.0101 248.214ZM53.2699 243.211L54.1502 243.685L54.1502 243.685L53.2699 243.211ZM55.6858 237.696L54.7408 237.369L54.7407 237.37L55.6858 237.696ZM57.2326 231.648L58.2187 231.814L58.2188 231.813L57.2326 231.648ZM57.7502 225.443L58.7502 225.443V225.443L57.7502 225.443ZM57.2326 219.343L56.2474 219.514L56.2475 219.515L57.2326 219.343ZM55.6858 213.605L56.6232 213.256L56.6227 213.255L55.6858 213.605ZM54.5844 211.008L55.4864 210.576L55.4836 210.571L54.5844 211.008ZM53.2639 208.574L54.1206 208.058L54.1202 208.058L53.2639 208.574ZM50.0101 204.225L49.2722 204.9L49.2729 204.901L50.0101 204.225ZM48.1058 202.348L48.7698 201.601L48.7685 201.599L48.1058 202.348ZM46.0462 200.715L46.6244 199.899L46.6243 199.899L46.0462 200.715ZM43.8421 199.329L44.3267 198.455L44.3267 198.455L43.8421 199.329ZM41.4996 198.198L41.1151 199.121L41.1156 199.121L41.4996 198.198ZM36.3452 196.735L36.5028 195.748L36.5026 195.748L36.3452 196.735ZM33.6548 196.467L33.6956 195.468L33.6952 195.468L33.6548 196.467ZM30.8282 195.513C29.862 195.584 28.9006 195.71 27.9485 195.888L28.3178 197.854C29.1965 197.689 30.0837 197.573 30.9753 197.507L30.8282 195.513ZM27.9492 195.888C26.9915 196.068 26.0445 196.3 25.1126 196.584L25.6959 198.497C26.5571 198.235 27.4322 198.02 28.3171 197.854L27.9492 195.888ZM25.1122 196.584C24.1674 196.873 23.239 197.212 22.3309 197.601L23.1185 199.44C23.9601 199.079 24.8207 198.764 25.6964 198.497L25.1122 196.584ZM22.3311 197.601C21.4037 197.998 20.4977 198.444 19.6168 198.935L20.5915 200.682C21.4116 200.224 22.255 199.809 23.1183 199.44L22.3311 197.601ZM19.6141 198.937C18.7545 199.42 17.9149 199.945 17.0952 200.512L18.2332 202.157C19.0024 201.625 19.7894 201.133 20.5942 200.68L19.6141 198.937ZM17.0952 200.512C16.2742 201.081 15.4773 201.691 14.7046 202.342L15.9941 203.871C16.7188 203.26 17.4652 202.689 18.2332 202.157L17.0952 200.512ZM14.7051 202.342C13.9331 202.992 13.1847 203.685 12.4599 204.419L13.8836 205.824C14.5664 205.132 15.2697 204.481 15.9935 203.872L14.7051 202.342ZM12.4599 204.419C11.7347 205.155 11.0368 205.929 10.3659 206.743L11.909 208.015C12.543 207.246 13.2012 206.516 13.8836 205.824L12.4599 204.419ZM10.3659 206.743C9.69508 207.556 9.05939 208.399 8.45888 209.271L10.106 210.405C10.674 209.581 11.275 208.784 11.909 208.015L10.3659 206.743ZM8.45888 209.271C7.85835 210.143 7.29506 211.041 6.76901 211.965L8.50723 212.954C9.00514 212.08 9.53806 211.23 10.106 210.405L8.45888 209.271ZM6.76665 211.969C6.24661 212.893 5.7605 213.842 5.30835 214.815L7.12219 215.658C7.55278 214.731 8.01528 213.829 8.50959 212.95L6.76665 211.969ZM5.30835 214.815C4.8547 215.792 4.44248 216.791 4.07161 217.812L5.95146 218.495C6.30285 217.527 6.69309 216.582 7.12219 215.658L5.30835 214.815ZM4.07215 217.811C3.68581 218.869 3.34754 219.939 3.05741 221.02L4.9891 221.539C5.26394 220.514 5.58452 219.5 5.95092 218.496L4.07215 217.811ZM3.05741 221.02C2.76737 222.102 2.52548 223.192 2.33181 224.291L4.30149 224.638C4.48498 223.597 4.71417 222.563 4.9891 221.539L3.05741 221.02ZM2.33194 224.291C2.13742 225.39 1.99156 226.497 1.89432 227.611L3.88675 227.785C3.97889 226.729 4.11709 225.681 4.30136 224.639L2.33194 224.291ZM1.89432 227.611C1.79709 228.725 1.74851 229.844 1.74854 230.966L3.74854 230.966C3.74851 229.901 3.79459 228.841 3.88675 227.785L1.89432 227.611ZM1.74854 230.966C1.74854 232.089 1.79712 233.198 1.89446 234.294L3.88661 234.117C3.79462 233.081 3.74854 232.031 3.74854 230.966H1.74854ZM1.89446 234.294C1.99181 235.39 2.13795 236.47 2.33306 237.534L4.30024 237.173C4.11651 236.171 3.97859 235.153 3.88661 234.117L1.89446 234.294ZM2.33292 237.533C2.52716 238.597 2.76989 239.642 3.06121 240.669L4.9853 240.123C4.71166 239.159 4.48332 238.176 4.30039 237.174L2.33292 237.533ZM3.06121 240.669C3.35242 241.696 3.69094 242.702 4.07678 243.687L5.93908 242.958C5.577 242.033 5.25905 241.089 4.9853 240.123L3.06121 240.669ZM4.0779 243.69C4.45346 244.641 4.86752 245.561 5.32025 246.452L7.10309 245.545C6.67949 244.712 6.29107 243.849 5.93797 242.955L4.0779 243.69ZM5.32 246.451C5.76826 247.334 6.26057 248.194 6.79511 249.028L8.4787 247.948C7.98032 247.171 7.5213 246.369 7.10334 245.546L5.32 246.451ZM6.79592 249.029C7.32293 249.848 7.89191 250.64 8.50052 251.4L10.062 250.15C9.49637 249.444 8.96762 248.708 8.47788 247.947L6.79592 249.029ZM8.49944 251.399C9.10289 252.155 9.74584 252.88 10.4256 253.568L11.8492 252.164C11.2189 251.525 10.6226 250.853 10.0631 250.152L8.49944 251.399ZM10.4258 253.569C11.0954 254.247 11.8012 254.888 12.5402 255.49L13.8033 253.94C13.1203 253.383 12.468 252.79 11.8491 252.163L10.4258 253.569ZM12.5402 255.49C13.2654 256.081 14.023 256.631 14.8095 257.137L15.8915 255.454C15.1677 254.989 14.4706 254.483 13.8033 253.94L12.5402 255.49ZM14.8093 257.136C16.3639 258.137 18.0281 258.956 19.7692 259.577L20.4415 257.694C18.8443 257.124 17.3178 256.372 15.8917 255.455L14.8093 257.136ZM19.7689 259.577C21.5552 260.216 23.4115 260.637 25.2982 260.834L25.5054 258.845C23.7776 258.665 22.0777 258.278 20.4418 257.694L19.7689 259.577ZM25.2992 260.834C26.2447 260.932 27.195 260.974 28.1453 260.96L28.1161 258.96C27.2441 258.973 26.372 258.934 25.5044 258.845L25.2992 260.834ZM28.1448 260.96C29.1084 260.946 30.0705 260.878 31.0265 260.755L30.7722 258.772C29.8913 258.885 29.0047 258.947 28.1167 258.96L28.1448 260.96ZM31.0258 260.756C31.989 260.633 32.9447 260.457 33.8885 260.229L33.4186 258.285C32.5463 258.496 31.6631 258.658 30.7729 258.772L31.0258 260.756ZM33.8887 260.229C34.8346 260 35.7675 259.72 36.683 259.39L36.0048 257.508C35.1573 257.814 34.2939 258.073 33.4184 258.285L33.8887 260.229ZM36.6833 259.39C37.6079 259.056 38.5142 258.674 39.3986 258.245L38.5255 256.446C37.7045 256.844 36.863 257.199 36.0045 257.508L36.6833 259.39ZM39.3986 258.245C40.2978 257.809 41.1743 257.327 42.0248 256.802L40.9744 255.1C40.1813 255.59 39.364 256.039 38.5256 256.445L39.3986 258.245ZM42.0289 256.8C42.854 256.285 43.6574 255.733 44.439 255.144L43.2355 253.547C42.5004 254.101 41.7453 254.619 40.9703 255.103L42.0289 256.8ZM44.439 255.144C45.2223 254.554 45.9807 253.925 46.7142 253.258L45.3684 251.778C44.6799 252.405 43.9689 252.994 43.2355 253.547L44.439 255.144ZM46.7142 253.258C47.4471 252.591 48.1543 251.888 48.8358 251.15L47.366 249.794C46.7234 250.49 46.0575 251.152 45.3684 251.778L46.7142 253.258ZM48.8358 251.15C49.5177 250.411 50.1726 249.636 50.8005 248.826L49.2196 247.601C48.6261 248.367 48.0082 249.098 47.366 249.794L48.8358 251.15ZM50.7983 248.829C51.4307 248.019 52.0261 247.185 52.5843 246.326L50.9074 245.236C50.3807 246.046 49.8189 246.834 49.2219 247.598L50.7983 248.829ZM52.5843 246.326C53.1418 245.468 53.6637 244.588 54.1502 243.685L52.3895 242.736C51.929 243.591 51.435 244.424 50.9074 245.236L52.5843 246.326ZM54.1502 243.685C54.6366 242.782 55.0867 241.859 55.5003 240.914L53.6684 240.112C53.2763 241.007 52.8501 241.882 52.3895 242.736L54.1502 243.685ZM55.5003 240.914C55.914 239.97 56.2908 239.006 56.6309 238.023L54.7407 237.37C54.4179 238.303 54.0604 239.217 53.6684 240.112L55.5003 240.914ZM56.6307 238.024C56.9832 237.006 57.2918 235.979 57.5563 234.943L55.6185 234.448C55.3678 235.43 55.0753 236.403 54.7408 237.369L56.6307 238.024ZM57.5563 234.943C57.8207 233.907 58.0415 232.864 58.2187 231.814L56.2465 231.481C56.0786 232.477 55.8693 233.466 55.6185 234.448L57.5563 234.943ZM58.2188 231.813C58.3951 230.762 58.5277 229.705 58.6167 228.643L56.6237 228.476C56.5393 229.483 56.4136 230.485 56.2464 231.482L58.2188 231.813ZM58.6167 228.643C58.7057 227.581 58.7502 226.514 58.7502 225.443L56.7502 225.443C56.7502 226.459 56.708 227.47 56.6237 228.476L58.6167 228.643ZM58.7502 225.443C58.7494 224.372 58.7049 223.314 58.6167 222.268L56.6237 222.436C56.7072 223.426 56.7494 224.428 56.7502 225.444L58.7502 225.443ZM58.6167 222.268C58.5284 221.222 58.3954 220.189 58.2177 219.171L56.2475 219.515C56.4149 220.474 56.5403 221.448 56.6237 222.436L58.6167 222.268ZM58.2178 219.171C58.0409 218.155 57.8193 217.152 57.5529 216.165L55.6219 216.685C55.8723 217.614 56.0808 218.557 56.2474 219.514L58.2178 219.171ZM57.5529 216.165C57.2866 215.177 56.9767 214.207 56.6232 213.256L54.7484 213.953C55.0803 214.846 55.3714 215.757 55.6219 216.685L57.5529 216.165ZM56.6227 213.255C56.2795 212.335 55.9008 211.443 55.4864 210.576L53.6823 211.44C54.0704 212.251 54.426 213.089 54.7489 213.954L56.6227 213.255ZM55.4836 210.571C55.0639 209.708 54.6096 208.871 54.1206 208.058L52.4071 209.09C52.8651 209.851 53.2911 210.636 53.6851 211.446L55.4836 210.571ZM54.1202 208.058C53.1485 206.446 52.0186 204.936 50.7473 203.549L49.2729 204.901C50.4545 206.19 51.5045 207.593 52.4075 209.091L54.1202 208.058ZM50.748 203.55C50.1228 202.866 49.4625 202.216 48.7698 201.601L47.4417 203.096C48.0827 203.665 48.6937 204.267 49.2722 204.9L50.748 203.55ZM48.7685 201.599C48.0849 200.994 47.3692 200.427 46.6244 199.899L45.4679 201.531C46.154 202.017 46.8133 202.54 47.4431 203.097L48.7685 201.599ZM46.6243 199.899C45.8857 199.375 45.1186 198.893 44.3267 198.455L43.3575 200.204C44.0849 200.607 44.7895 201.05 45.468 201.531L46.6243 199.899ZM44.3267 198.455C43.5349 198.016 42.7193 197.622 41.8836 197.274L41.1156 199.121C41.8825 199.44 42.631 199.802 43.3575 200.204L44.3267 198.455ZM41.8841 197.275C40.1568 196.555 38.3505 196.043 36.5028 195.748L36.1875 197.723C37.8794 197.993 39.5335 198.462 41.1151 199.121L41.8841 197.275ZM36.5026 195.748C35.5732 195.6 34.6359 195.506 33.6956 195.468L33.614 197.466C34.4762 197.501 35.3356 197.587 36.1877 197.723L36.5026 195.748ZM33.6952 195.468C32.739 195.429 31.7814 195.445 30.827 195.515L30.9742 197.51C31.8527 197.445 32.7342 197.43 33.6143 197.466L33.6952 195.468Z" fill="#FF0000" mask="url(#path-12-inside-1_108_345)"/>
<mask id="path-14-inside-2_108_345" fill="white">
<path d="M30.9018 309.663C29.9729 309.731 29.0485 309.852 28.1331 310.024C27.2118 310.196 26.3008 310.42 25.4043 310.693C24.494 310.971 23.5995 311.298 22.7247 311.673C21.8293 312.056 20.9546 312.486 20.1042 312.961C19.272 313.429 18.4586 313.937 17.6642 314.487C16.8697 315.037 16.0981 315.627 15.3493 316.259C14.6014 316.889 13.8755 317.561 13.1718 318.274C12.468 318.988 11.7899 319.74 11.1375 320.531C10.485 321.322 9.86667 322.142 9.28244 322.99C8.69821 323.839 8.1501 324.713 7.63812 325.612C7.13094 326.513 6.65664 327.439 6.21527 328.389C5.7739 329.339 5.37266 330.312 5.01154 331.306C4.63517 332.337 4.30574 333.379 4.02325 334.432C3.74077 335.485 3.50523 336.547 3.31665 337.617C3.12726 338.688 2.98523 339.765 2.89053 340.85C2.79584 341.935 2.74851 343.025 2.74854 344.119C2.74854 345.212 2.79587 346.292 2.89053 347.358C2.9852 348.424 3.12723 349.473 3.31665 350.506C3.50524 351.538 3.74077 352.553 4.02325 353.549C4.30573 354.545 4.63397 355.52 5.00793 356.475C5.37226 357.397 5.7735 358.289 6.21167 359.151C6.64478 360.004 7.12044 360.835 7.6369 361.64C8.14527 362.43 8.69414 363.194 9.28125 363.927C9.86277 364.657 10.4823 365.355 11.1374 366.018C11.7817 366.671 12.4608 367.288 13.1718 367.867C13.868 368.434 14.5954 368.962 15.3505 369.448C16.8408 370.407 18.4362 371.192 20.1053 371.788C21.8164 372.399 23.5946 372.803 25.4018 372.992C26.3083 373.085 27.2195 373.125 28.1307 373.112C29.0566 373.099 29.9809 373.034 30.8994 372.916C31.826 372.798 32.7455 372.629 33.6535 372.409C34.5643 372.189 35.4624 371.919 36.3439 371.601C37.2354 371.28 38.1094 370.911 38.9621 370.498C39.8309 370.076 40.6778 369.611 41.4996 369.104C42.2997 368.604 43.0789 368.069 43.8372 367.498C44.5956 366.926 45.3303 366.317 46.0413 365.671C46.7523 365.024 47.4389 364.342 48.1009 363.624C48.763 362.907 49.3994 362.154 50.0101 361.366C50.6248 360.579 51.2034 359.768 51.7459 358.933C52.2884 358.099 52.7964 357.242 53.2699 356.363C53.7433 355.484 54.1815 354.585 54.5844 353.665C54.9872 352.746 55.3544 351.807 55.6858 350.849C56.0293 349.857 56.3298 348.857 56.5874 347.848C56.845 346.839 57.0601 345.823 57.2326 344.8C57.4043 343.776 57.5335 342.747 57.6202 341.712C57.7069 340.678 57.7502 339.639 57.7502 338.596C57.7494 337.553 57.7061 336.522 57.6202 335.505C57.5343 334.487 57.4051 333.484 57.2326 332.495C57.0609 331.508 56.8458 330.535 56.5874 329.577C56.329 328.619 56.0285 327.679 55.6858 326.757C55.3528 325.865 54.9856 324.999 54.5844 324.16C54.1775 323.324 53.7373 322.513 53.2639 321.726C52.3265 320.172 51.2365 318.715 50.0101 317.377C49.4082 316.719 48.7726 316.093 48.1058 315.501C47.4491 314.92 46.7616 314.374 46.0462 313.867C45.3376 313.365 44.6018 312.902 43.8421 312.482C43.083 312.061 42.3009 311.683 41.4996 311.35C39.8451 310.661 38.115 310.17 36.3452 309.888C35.4544 309.746 34.5561 309.656 33.6548 309.619C32.7366 309.582 31.817 309.597 30.9006 309.665"/>
</mask>
<path d="M28.1331 310.024L28.3171 311.007L28.3178 311.006L28.1331 310.024ZM25.4043 310.693L25.1126 309.736L25.1122 309.737L25.4043 310.693ZM22.7247 311.673L23.1183 312.592L23.1185 312.592L22.7247 311.673ZM20.1042 312.961L19.6168 312.088L19.6141 312.089L20.1042 312.961ZM15.3493 316.259L15.9935 317.024L15.9941 317.023L15.3493 316.259ZM11.1375 320.531L10.3659 319.895L10.3659 319.895L11.1375 320.531ZM7.63812 325.612L6.769 325.118L6.76665 325.122L7.63812 325.612ZM5.01154 331.306L5.95092 331.649L5.95146 331.647L5.01154 331.306ZM3.31665 337.617L4.30136 337.791L4.30149 337.791L3.31665 337.617ZM2.74854 344.119H3.74854V344.119L2.74854 344.119ZM3.31665 350.506L4.30039 350.326L4.30025 350.325L3.31665 350.506ZM5.00793 356.475L4.07678 356.84L4.0779 356.842L5.00793 356.475ZM6.21167 359.151L7.10334 358.698L7.10309 358.698L6.21167 359.151ZM7.6369 361.64L6.79511 362.18L6.79592 362.181L7.6369 361.64ZM9.28125 363.927L10.0631 363.304L10.062 363.303L9.28125 363.927ZM11.1374 366.018L10.4256 366.721L10.4258 366.721L11.1374 366.018ZM13.1718 367.867L12.5402 368.643L12.5402 368.643L13.1718 367.867ZM15.3505 369.448L15.8917 368.607L15.8915 368.607L15.3505 369.448ZM20.1053 371.788L20.4418 370.846L20.4415 370.846L20.1053 371.788ZM25.4018 372.992L25.2982 373.986L25.2992 373.986L25.4018 372.992ZM28.1307 373.112L28.1167 372.112L28.1161 372.112L28.1307 373.112ZM30.8994 372.916L30.7729 371.924L30.7722 371.924L30.8994 372.916ZM33.6535 372.409L33.8885 373.381L33.8887 373.381L33.6535 372.409ZM36.3439 371.601L36.683 372.542L36.6833 372.542L36.3439 371.601ZM38.9621 370.498L38.5256 369.598L38.5255 369.598L38.9621 370.498ZM41.4996 369.104L42.0248 369.955L42.0289 369.952L41.4996 369.104ZM46.0413 365.671L46.7142 366.41L46.0413 365.671ZM50.0101 361.366L49.2219 360.75L49.2196 360.753L50.0101 361.366ZM53.2699 356.363L54.1502 356.837L54.1502 356.837L53.2699 356.363ZM55.6858 350.849L54.7408 350.522L54.7407 350.522L55.6858 350.849ZM57.2326 344.8L58.2187 344.966L58.2188 344.965L57.2326 344.8ZM57.7502 338.596L58.7502 338.596V338.595L57.7502 338.596ZM57.2326 332.495L56.2474 332.667L56.2475 332.667L57.2326 332.495ZM55.6858 326.757L56.6232 326.409L56.6227 326.407L55.6858 326.757ZM54.5844 324.16L55.4864 323.729L55.4836 323.723L54.5844 324.16ZM53.2639 321.726L54.1206 321.211L54.1202 321.21L53.2639 321.726ZM50.0101 317.377L49.2722 318.052L49.2729 318.053L50.0101 317.377ZM48.1058 315.501L48.7698 314.753L48.7685 314.752L48.1058 315.501ZM46.0462 313.867L46.6245 313.051L46.6243 313.051L46.0462 313.867ZM43.8421 312.482L44.3267 311.607L44.3267 311.607L43.8421 312.482ZM41.4996 311.35L41.1151 312.273L41.1156 312.273L41.4996 311.35ZM36.3452 309.888L36.5028 308.9L36.5026 308.9L36.3452 309.888ZM33.6548 309.619L33.6956 308.62L33.6952 308.62L33.6548 309.619ZM30.8282 308.665C29.862 308.737 28.9006 308.862 27.9485 309.041L28.3178 311.006C29.1965 310.841 30.0837 310.726 30.9753 310.66L30.8282 308.665ZM27.9491 309.041C26.9915 309.22 26.0445 309.452 25.1126 309.736L25.6959 311.649C26.5571 311.387 27.4322 311.172 28.3171 311.007L27.9491 309.041ZM25.1122 309.737C24.1674 310.025 23.239 310.365 22.3309 310.754L23.1185 312.592C23.9601 312.231 24.8207 311.917 25.6964 311.649L25.1122 309.737ZM22.3311 310.754C21.4037 311.151 20.4977 311.596 19.6168 312.088L20.5915 313.834C21.4116 313.376 22.255 312.962 23.1183 312.592L22.3311 310.754ZM19.6141 312.089C18.7545 312.572 17.9149 313.098 17.0952 313.665L18.2331 315.31C19.0024 314.777 19.7894 314.285 20.5942 313.832L19.6141 312.089ZM17.0952 313.665C16.2742 314.233 15.4773 314.843 14.7046 315.495L15.9941 317.023C16.7188 316.412 17.4652 315.841 18.2331 315.31L17.0952 313.665ZM14.7051 315.494C13.9331 316.144 13.1847 316.837 12.4599 317.572L13.8836 318.976C14.5664 318.284 15.2697 317.634 15.9935 317.024L14.7051 315.494ZM12.4599 317.572C11.7347 318.307 11.0368 319.081 10.3659 319.895L11.909 321.167C12.543 320.398 13.2012 319.668 13.8836 318.976L12.4599 317.572ZM10.3659 319.895C9.69507 320.709 9.05938 321.551 8.45888 322.423L10.106 323.558C10.674 322.733 11.275 321.936 11.909 321.167L10.3659 319.895ZM8.45888 322.423C7.85836 323.295 7.29506 324.193 6.76901 325.118L8.50723 326.107C9.00514 325.232 9.53806 324.382 10.106 323.558L8.45888 322.423ZM6.76665 325.122C6.2466 326.046 5.7605 326.995 5.30835 327.968L7.12219 328.81C7.55279 327.884 8.01528 326.981 8.50959 326.103L6.76665 325.122ZM5.30835 327.968C4.8547 328.944 4.44248 329.943 4.07161 330.964L5.95146 331.647C6.30285 330.68 6.69309 329.734 7.12219 328.81L5.30835 327.968ZM4.07215 330.963C3.68581 332.022 3.34754 333.091 3.05741 334.173L4.9891 334.691C5.26394 333.667 5.58453 332.653 5.95092 331.649L4.07215 330.963ZM3.05741 334.173C2.76737 335.254 2.52549 336.344 2.33181 337.444L4.30149 337.791C4.48498 336.749 4.71417 335.716 4.9891 334.691L3.05741 334.173ZM2.33194 337.443C2.13742 338.542 1.99156 339.649 1.89432 340.763L3.88675 340.937C3.97889 339.881 4.11709 338.833 4.30136 337.791L2.33194 337.443ZM1.89432 340.763C1.79709 341.877 1.74851 342.996 1.74854 344.119L3.74854 344.119C3.74851 343.054 3.79459 341.993 3.88675 340.937L1.89432 340.763ZM1.74854 344.119C1.74854 345.241 1.79712 346.351 1.89446 347.446L3.88661 347.269C3.79462 346.234 3.74854 345.183 3.74854 344.119H1.74854ZM1.89446 347.446C1.99181 348.542 2.13795 349.622 2.33306 350.686L4.30025 350.325C4.11651 349.323 3.97859 348.305 3.88661 347.269L1.89446 347.446ZM2.33292 350.685C2.52716 351.749 2.76989 352.795 3.06121 353.822L4.9853 353.276C4.71166 352.311 4.48332 351.328 4.30039 350.326L2.33292 350.685ZM3.06121 353.822C3.35242 354.848 3.69093 355.854 4.07678 356.84L5.93908 356.11C5.577 355.186 5.25905 354.241 4.9853 353.276L3.06121 353.822ZM4.0779 356.842C4.45345 357.793 4.86752 358.714 5.32025 359.604L7.10309 358.698C6.67949 357.865 6.29107 357.001 5.93797 356.108L4.0779 356.842ZM5.32 359.604C5.76826 360.487 6.26057 361.347 6.79511 362.18L8.4787 361.1C7.98031 360.323 7.52129 359.522 7.10334 358.698L5.32 359.604ZM6.79592 362.181C7.32293 363 7.89191 363.792 8.50052 364.552L10.062 363.303C9.49637 362.596 8.96762 361.86 8.47788 361.099L6.79592 362.181ZM8.49944 364.551C9.10289 365.308 9.74584 366.032 10.4256 366.721L11.8492 365.316C11.2189 364.677 10.6226 364.006 10.0631 363.304L8.49944 364.551ZM10.4258 366.721C11.0954 367.399 11.8012 368.041 12.5402 368.643L13.8033 367.092C13.1203 366.536 12.468 365.943 11.8491 365.316L10.4258 366.721ZM12.5402 368.643C13.2654 369.233 14.023 369.783 14.8095 370.289L15.8915 368.607C15.1677 368.141 14.4706 367.635 13.8033 367.092L12.5402 368.643ZM14.8093 370.289C16.3639 371.289 18.0281 372.108 19.7692 372.73L20.4415 370.846C18.8443 370.276 17.3178 369.525 15.8917 368.607L14.8093 370.289ZM19.7689 372.73C21.5552 373.368 23.4115 373.79 25.2982 373.986L25.5054 371.997C23.7776 371.817 22.0777 371.431 20.4418 370.846L19.7689 372.73ZM25.2992 373.986C26.2446 374.084 27.195 374.126 28.1453 374.112L28.1161 372.112C27.2441 372.125 26.372 372.086 25.5044 371.997L25.2992 373.986ZM28.1448 374.112C29.1084 374.098 30.0705 374.03 31.0265 373.908L30.7722 371.924C29.8913 372.037 29.0047 372.1 28.1167 372.112L28.1448 374.112ZM31.0258 373.908C31.989 373.785 32.9447 373.609 33.8885 373.381L33.4186 371.437C32.5463 371.648 31.6631 371.81 30.7729 371.924L31.0258 373.908ZM33.8887 373.381C34.8346 373.152 35.7675 372.872 36.683 372.542L36.0048 370.661C35.1573 370.966 34.294 371.225 33.4184 371.437L33.8887 373.381ZM36.6833 372.542C37.6079 372.208 38.5142 371.826 39.3986 371.397L38.5255 369.598C37.7045 369.996 36.863 370.351 36.0045 370.661L36.6833 372.542ZM39.3986 371.397C40.2978 370.961 41.1743 370.48 42.0248 369.955L40.9744 368.253C40.1813 368.742 39.364 369.191 38.5256 369.598L39.3986 371.397ZM42.0289 369.952C42.854 369.437 43.6574 368.885 44.439 368.296L43.2355 366.699C42.5004 367.253 41.7453 367.772 40.9703 368.255L42.0289 369.952ZM44.439 368.296C45.2223 367.706 45.9807 367.078 46.7142 366.41L45.3684 364.931C44.6799 365.557 43.9689 366.146 43.2355 366.699L44.439 368.296ZM46.7142 366.41C47.4471 365.743 48.1543 365.041 48.8358 364.302L47.366 362.946C46.7234 363.642 46.0575 364.304 45.3684 364.931L46.7142 366.41ZM48.8358 364.302C49.5177 363.563 50.1726 362.789 50.8005 361.978L49.2196 360.753C48.6261 361.519 48.0082 362.25 47.366 362.946L48.8358 364.302ZM50.7983 361.981C51.4306 361.171 52.026 360.337 52.5843 359.478L50.9074 358.388C50.3807 359.198 49.8189 359.986 49.2219 360.75L50.7983 361.981ZM52.5843 359.478C53.1418 358.62 53.6637 357.74 54.1502 356.837L52.3895 355.889C51.929 356.743 51.435 357.577 50.9074 358.388L52.5843 359.478ZM54.1502 356.837C54.6366 355.935 55.0867 355.011 55.5003 354.067L53.6684 353.264C53.2763 354.159 52.8501 355.034 52.3895 355.889L54.1502 356.837ZM55.5003 354.067C55.914 353.122 56.2908 352.159 56.6309 351.176L54.7407 350.522C54.4179 351.455 54.0604 352.369 53.6684 353.264L55.5003 354.067ZM56.6307 351.176C56.9832 350.158 57.2918 349.131 57.5563 348.095L55.6185 347.6C55.3678 348.582 55.0753 349.556 54.7408 350.522L56.6307 351.176ZM57.5563 348.095C57.8207 347.06 58.0415 346.017 58.2187 344.966L56.2465 344.634C56.0786 345.629 55.8693 346.618 55.6185 347.6L57.5563 348.095ZM58.2188 344.965C58.3951 343.914 58.5277 342.858 58.6167 341.796L56.6237 341.629C56.5393 342.636 56.4136 343.638 56.2464 344.634L58.2188 344.965ZM58.6167 341.796C58.7057 340.733 58.7502 339.667 58.7502 338.596L56.7502 338.596C56.7502 339.611 56.708 340.622 56.6237 341.629L58.6167 341.796ZM58.7502 338.595C58.7494 337.525 58.7049 336.466 58.6167 335.42L56.6237 335.589C56.7072 336.578 56.7494 337.581 56.7502 338.597L58.7502 338.595ZM58.6167 335.42C58.5284 334.374 58.3954 333.342 58.2177 332.323L56.2475 332.667C56.4149 333.626 56.5403 334.6 56.6237 335.589L58.6167 335.42ZM58.2178 332.324C58.0409 331.307 57.8193 330.305 57.5529 329.317L55.6219 329.838C55.8723 330.766 56.0808 331.709 56.2474 332.667L58.2178 332.324ZM57.5529 329.317C57.2866 328.329 56.9767 327.36 56.6232 326.409L54.7484 327.105C55.0803 327.998 55.3714 328.909 55.6219 329.838L57.5529 329.317ZM56.6227 326.407C56.2795 325.488 55.9008 324.595 55.4864 323.729L53.6823 324.592C54.0704 325.403 54.426 326.241 54.7489 327.107L56.6227 326.407ZM55.4836 323.723C55.0639 322.86 54.6096 322.023 54.1206 321.211L52.4071 322.242C52.8651 323.003 53.2911 323.788 53.6851 324.598L55.4836 323.723ZM54.1202 321.21C53.1485 319.599 52.0186 318.089 50.7473 316.702L49.2729 318.053C50.4545 319.342 51.5045 320.746 52.4075 322.243L54.1202 321.21ZM50.748 316.702C50.1228 316.019 49.4625 315.368 48.7698 314.753L47.4417 316.248C48.0827 316.818 48.6936 317.42 49.2722 318.052L50.748 316.702ZM48.7685 314.752C48.0849 314.147 47.3692 313.579 46.6245 313.051L45.4679 314.683C46.154 315.169 46.8133 315.692 47.4431 316.25L48.7685 314.752ZM46.6243 313.051C45.8857 312.528 45.1186 312.046 44.3267 311.607L43.3575 313.356C44.0849 313.759 44.7895 314.202 45.468 314.683L46.6243 313.051ZM44.3267 311.607C43.5349 311.168 42.7193 310.774 41.8836 310.427L41.1156 312.273C41.8825 312.592 42.631 312.954 43.3575 313.356L44.3267 311.607ZM41.8841 310.427C40.1568 309.708 38.3505 309.195 36.5028 308.9L36.1875 310.875C37.8794 311.145 39.5335 311.614 41.1151 312.273L41.8841 310.427ZM36.5026 308.9C35.5732 308.752 34.6359 308.658 33.6956 308.62L33.614 310.618C34.4762 310.654 35.3356 310.739 36.1877 310.875L36.5026 308.9ZM33.6952 308.62C32.739 308.581 31.7814 308.597 30.827 308.668L30.9742 310.662C31.8527 310.597 32.7342 310.583 33.6143 310.618L33.6952 308.62Z" fill="#009258" mask="url(#path-14-inside-2_108_345)"/>
<mask id="path-16-inside-3_108_345" fill="white">
<path d="M30.9018 419.663C29.9729 419.731 29.0485 419.852 28.1331 420.024C27.2118 420.196 26.3008 420.42 25.4043 420.693C24.494 420.971 23.5995 421.298 22.7247 421.673C21.8293 422.056 20.9546 422.486 20.1042 422.961C19.272 423.429 18.4586 423.937 17.6642 424.487C16.8697 425.037 16.0981 425.627 15.3493 426.259C14.6014 426.889 13.8755 427.561 13.1718 428.274C12.468 428.988 11.7899 429.74 11.1375 430.531C10.485 431.322 9.86667 432.142 9.28244 432.99C8.69821 433.839 8.1501 434.713 7.63812 435.612C7.13094 436.513 6.65664 437.439 6.21527 438.389C5.7739 439.339 5.37266 440.312 5.01154 441.306C4.63517 442.337 4.30574 443.379 4.02325 444.432C3.74077 445.485 3.50523 446.547 3.31665 447.617C3.12726 448.688 2.98523 449.765 2.89053 450.85C2.79584 451.935 2.74851 453.025 2.74854 454.119C2.74854 455.212 2.79587 456.292 2.89053 457.358C2.9852 458.424 3.12723 459.473 3.31665 460.506C3.50524 461.538 3.74077 462.553 4.02325 463.549C4.30573 464.545 4.63397 465.52 5.00793 466.475C5.37226 467.397 5.7735 468.289 6.21167 469.151C6.64478 470.004 7.12044 470.835 7.6369 471.64C8.14527 472.43 8.69414 473.194 9.28125 473.927C9.86277 474.657 10.4823 475.355 11.1374 476.018C11.7817 476.671 12.4608 477.288 13.1718 477.867C13.868 478.434 14.5954 478.962 15.3505 479.448C16.8408 480.407 18.4362 481.192 20.1053 481.788C21.8164 482.399 23.5946 482.803 25.4018 482.992C26.3083 483.085 27.2195 483.125 28.1307 483.112C29.0566 483.099 29.9809 483.034 30.8994 482.916C31.826 482.798 32.7455 482.629 33.6535 482.409C34.5643 482.189 35.4624 481.919 36.3439 481.601C37.2354 481.28 38.1094 480.911 38.9621 480.498C39.8309 480.076 40.6778 479.611 41.4996 479.104C42.2997 478.604 43.0789 478.069 43.8372 477.498C44.5956 476.926 45.3303 476.317 46.0413 475.671C46.7523 475.024 47.4389 474.342 48.1009 473.624C48.763 472.907 49.3994 472.154 50.0101 471.366C50.6248 470.579 51.2034 469.768 51.7459 468.933C52.2884 468.099 52.7964 467.242 53.2699 466.363C53.7433 465.484 54.1815 464.585 54.5844 463.665C54.9872 462.746 55.3544 461.807 55.6858 460.849C56.0293 459.857 56.3298 458.857 56.5874 457.848C56.845 456.839 57.0601 455.823 57.2326 454.8C57.4043 453.776 57.5335 452.747 57.6202 451.712C57.7069 450.678 57.7502 449.639 57.7502 448.596C57.7494 447.553 57.7061 446.522 57.6202 445.505C57.5343 444.487 57.4051 443.484 57.2326 442.495C57.0609 441.508 56.8458 440.535 56.5874 439.577C56.329 438.619 56.0285 437.679 55.6858 436.757C55.3528 435.865 54.9856 434.999 54.5844 434.16C54.1775 433.324 53.7373 432.513 53.2639 431.726C52.3265 430.172 51.2365 428.715 50.0101 427.377C49.4082 426.719 48.7726 426.093 48.1058 425.501C47.4491 424.92 46.7616 424.374 46.0462 423.867C45.3376 423.365 44.6018 422.902 43.8421 422.482C43.083 422.061 42.3009 421.683 41.4996 421.35C39.8451 420.661 38.115 420.17 36.3452 419.888C35.4544 419.746 34.5561 419.656 33.6548 419.619C32.7366 419.582 31.817 419.597 30.9006 419.665"/>
</mask>
<path d="M28.1331 420.024L28.3171 421.007L28.3178 421.006L28.1331 420.024ZM25.4043 420.693L25.1126 419.736L25.1122 419.737L25.4043 420.693ZM22.7247 421.673L23.1183 422.592L23.1185 422.592L22.7247 421.673ZM20.1042 422.961L19.6168 422.088L19.6141 422.089L20.1042 422.961ZM15.3493 426.259L15.9935 427.024L15.9941 427.023L15.3493 426.259ZM11.1375 430.531L10.3659 429.895L10.3659 429.895L11.1375 430.531ZM7.63812 435.612L6.769 435.118L6.76665 435.122L7.63812 435.612ZM5.01154 441.306L5.95092 441.649L5.95146 441.647L5.01154 441.306ZM3.31665 447.617L4.30136 447.791L4.30149 447.791L3.31665 447.617ZM2.74854 454.119H3.74854V454.119L2.74854 454.119ZM3.31665 460.506L4.30039 460.326L4.30025 460.325L3.31665 460.506ZM5.00793 466.475L4.07678 466.84L4.0779 466.842L5.00793 466.475ZM6.21167 469.151L7.10334 468.698L7.10309 468.698L6.21167 469.151ZM7.6369 471.64L6.79511 472.18L6.79592 472.181L7.6369 471.64ZM9.28125 473.927L10.0631 473.304L10.062 473.303L9.28125 473.927ZM11.1374 476.018L10.4256 476.721L10.4258 476.721L11.1374 476.018ZM13.1718 477.867L12.5402 478.643L12.5402 478.643L13.1718 477.867ZM15.3505 479.448L15.8917 478.607L15.8915 478.607L15.3505 479.448ZM20.1053 481.788L20.4418 480.846L20.4415 480.846L20.1053 481.788ZM25.4018 482.992L25.2982 483.986L25.2992 483.986L25.4018 482.992ZM28.1307 483.112L28.1167 482.112L28.1161 482.112L28.1307 483.112ZM30.8994 482.916L30.7729 481.924L30.7722 481.924L30.8994 482.916ZM33.6535 482.409L33.8885 483.381L33.8887 483.381L33.6535 482.409ZM36.3439 481.601L36.683 482.542L36.6833 482.542L36.3439 481.601ZM38.9621 480.498L38.5256 479.598L38.5255 479.598L38.9621 480.498ZM41.4996 479.104L42.0248 479.955L42.0289 479.952L41.4996 479.104ZM46.0413 475.671L46.7142 476.41L46.0413 475.671ZM50.0101 471.366L49.2219 470.75L49.2196 470.753L50.0101 471.366ZM53.2699 466.363L54.1502 466.837L54.1502 466.837L53.2699 466.363ZM55.6858 460.849L54.7408 460.522L54.7407 460.522L55.6858 460.849ZM57.2326 454.8L58.2187 454.966L58.2188 454.965L57.2326 454.8ZM57.7502 448.596L58.7502 448.596V448.595L57.7502 448.596ZM57.2326 442.495L56.2474 442.667L56.2475 442.667L57.2326 442.495ZM55.6858 436.757L56.6232 436.409L56.6227 436.407L55.6858 436.757ZM54.5844 434.16L55.4864 433.729L55.4836 433.723L54.5844 434.16ZM53.2639 431.726L54.1206 431.211L54.1202 431.21L53.2639 431.726ZM50.0101 427.377L49.2722 428.052L49.2729 428.053L50.0101 427.377ZM48.1058 425.501L48.7698 424.753L48.7685 424.752L48.1058 425.501ZM46.0462 423.867L46.6245 423.051L46.6243 423.051L46.0462 423.867ZM43.8421 422.482L44.3267 421.607L44.3267 421.607L43.8421 422.482ZM41.4996 421.35L41.1151 422.273L41.1156 422.273L41.4996 421.35ZM36.3452 419.888L36.5028 418.9L36.5026 418.9L36.3452 419.888ZM33.6548 419.619L33.6956 418.62L33.6952 418.62L33.6548 419.619ZM30.8282 418.665C29.862 418.737 28.9006 418.862 27.9485 419.041L28.3178 421.006C29.1965 420.841 30.0837 420.726 30.9753 420.66L30.8282 418.665ZM27.9491 419.041C26.9915 419.22 26.0445 419.452 25.1126 419.736L25.6959 421.649C26.5571 421.387 27.4322 421.172 28.3171 421.007L27.9491 419.041ZM25.1122 419.737C24.1674 420.025 23.239 420.365 22.3309 420.754L23.1185 422.592C23.9601 422.231 24.8207 421.917 25.6964 421.649L25.1122 419.737ZM22.3311 420.754C21.4037 421.151 20.4977 421.596 19.6168 422.088L20.5915 423.834C21.4116 423.376 22.255 422.962 23.1183 422.592L22.3311 420.754ZM19.6141 422.089C18.7545 422.572 17.9149 423.098 17.0952 423.665L18.2331 425.31C19.0024 424.777 19.7894 424.285 20.5942 423.832L19.6141 422.089ZM17.0952 423.665C16.2742 424.233 15.4773 424.843 14.7046 425.495L15.9941 427.023C16.7188 426.412 17.4652 425.841 18.2331 425.31L17.0952 423.665ZM14.7051 425.494C13.9331 426.144 13.1847 426.837 12.4599 427.572L13.8836 428.976C14.5664 428.284 15.2697 427.634 15.9935 427.024L14.7051 425.494ZM12.4599 427.572C11.7347 428.307 11.0368 429.081 10.3659 429.895L11.909 431.167C12.543 430.398 13.2012 429.668 13.8836 428.976L12.4599 427.572ZM10.3659 429.895C9.69507 430.709 9.05938 431.551 8.45888 432.423L10.106 433.558C10.674 432.733 11.275 431.936 11.909 431.167L10.3659 429.895ZM8.45888 432.423C7.85836 433.295 7.29506 434.193 6.76901 435.118L8.50723 436.107C9.00514 435.232 9.53806 434.382 10.106 433.558L8.45888 432.423ZM6.76665 435.122C6.2466 436.046 5.7605 436.995 5.30835 437.968L7.12219 438.81C7.55279 437.884 8.01528 436.981 8.50959 436.103L6.76665 435.122ZM5.30835 437.968C4.8547 438.944 4.44248 439.943 4.07161 440.964L5.95146 441.647C6.30285 440.68 6.69309 439.734 7.12219 438.81L5.30835 437.968ZM4.07215 440.963C3.68581 442.022 3.34754 443.091 3.05741 444.173L4.9891 444.691C5.26394 443.667 5.58453 442.653 5.95092 441.649L4.07215 440.963ZM3.05741 444.173C2.76737 445.254 2.52549 446.344 2.33181 447.444L4.30149 447.791C4.48498 446.749 4.71417 445.716 4.9891 444.691L3.05741 444.173ZM2.33194 447.443C2.13742 448.542 1.99156 449.649 1.89432 450.763L3.88675 450.937C3.97889 449.881 4.11709 448.833 4.30136 447.791L2.33194 447.443ZM1.89432 450.763C1.79709 451.877 1.74851 452.996 1.74854 454.119L3.74854 454.119C3.74851 453.054 3.79459 451.993 3.88675 450.937L1.89432 450.763ZM1.74854 454.119C1.74854 455.241 1.79712 456.351 1.89446 457.446L3.88661 457.269C3.79462 456.234 3.74854 455.183 3.74854 454.119H1.74854ZM1.89446 457.446C1.99181 458.542 2.13795 459.622 2.33306 460.686L4.30025 460.325C4.11651 459.323 3.97859 458.305 3.88661 457.269L1.89446 457.446ZM2.33292 460.685C2.52716 461.749 2.76989 462.795 3.06121 463.822L4.9853 463.276C4.71166 462.311 4.48332 461.328 4.30039 460.326L2.33292 460.685ZM3.06121 463.822C3.35242 464.848 3.69093 465.854 4.07678 466.84L5.93908 466.11C5.577 465.186 5.25905 464.241 4.9853 463.276L3.06121 463.822ZM4.0779 466.842C4.45345 467.793 4.86752 468.714 5.32025 469.604L7.10309 468.698C6.67949 467.865 6.29107 467.001 5.93797 466.108L4.0779 466.842ZM5.32 469.604C5.76826 470.487 6.26057 471.347 6.79511 472.18L8.4787 471.1C7.98031 470.323 7.52129 469.522 7.10334 468.698L5.32 469.604ZM6.79592 472.181C7.32293 473 7.89191 473.792 8.50052 474.552L10.062 473.303C9.49637 472.596 8.96762 471.86 8.47788 471.099L6.79592 472.181ZM8.49944 474.551C9.10289 475.308 9.74584 476.032 10.4256 476.721L11.8492 475.316C11.2189 474.677 10.6226 474.006 10.0631 473.304L8.49944 474.551ZM10.4258 476.721C11.0954 477.399 11.8012 478.041 12.5402 478.643L13.8033 477.092C13.1203 476.536 12.468 475.943 11.8491 475.316L10.4258 476.721ZM12.5402 478.643C13.2654 479.233 14.023 479.783 14.8095 480.289L15.8915 478.607C15.1677 478.141 14.4706 477.635 13.8033 477.092L12.5402 478.643ZM14.8093 480.289C16.3639 481.289 18.0281 482.108 19.7692 482.73L20.4415 480.846C18.8443 480.276 17.3178 479.525 15.8917 478.607L14.8093 480.289ZM19.7689 482.73C21.5552 483.368 23.4115 483.79 25.2982 483.986L25.5054 481.997C23.7776 481.817 22.0777 481.431 20.4418 480.846L19.7689 482.73ZM25.2992 483.986C26.2446 484.084 27.195 484.126 28.1453 484.112L28.1161 482.112C27.2441 482.125 26.372 482.086 25.5044 481.997L25.2992 483.986ZM28.1448 484.112C29.1084 484.098 30.0705 484.03 31.0265 483.908L30.7722 481.924C29.8913 482.037 29.0047 482.1 28.1167 482.112L28.1448 484.112ZM31.0258 483.908C31.989 483.785 32.9447 483.609 33.8885 483.381L33.4186 481.437C32.5463 481.648 31.6631 481.81 30.7729 481.924L31.0258 483.908ZM33.8887 483.381C34.8346 483.152 35.7675 482.872 36.683 482.542L36.0048 480.661C35.1573 480.966 34.294 481.225 33.4184 481.437L33.8887 483.381ZM36.6833 482.542C37.6079 482.208 38.5142 481.826 39.3986 481.397L38.5255 479.598C37.7045 479.996 36.863 480.351 36.0045 480.661L36.6833 482.542ZM39.3986 481.397C40.2978 480.961 41.1743 480.48 42.0248 479.955L40.9744 478.253C40.1813 478.742 39.364 479.191 38.5256 479.598L39.3986 481.397ZM42.0289 479.952C42.854 479.437 43.6574 478.885 44.439 478.296L43.2355 476.699C42.5004 477.253 41.7453 477.772 40.9703 478.255L42.0289 479.952ZM44.439 478.296C45.2223 477.706 45.9807 477.078 46.7142 476.41L45.3684 474.931C44.6799 475.557 43.9689 476.146 43.2355 476.699L44.439 478.296ZM46.7142 476.41C47.4471 475.743 48.1543 475.041 48.8358 474.302L47.366 472.946C46.7234 473.642 46.0575 474.304 45.3684 474.931L46.7142 476.41ZM48.8358 474.302C49.5177 473.563 50.1726 472.789 50.8005 471.978L49.2196 470.753C48.6261 471.519 48.0082 472.25 47.366 472.946L48.8358 474.302ZM50.7983 471.981C51.4306 471.171 52.026 470.337 52.5843 469.478L50.9074 468.388C50.3807 469.198 49.8189 469.986 49.2219 470.75L50.7983 471.981ZM52.5843 469.478C53.1418 468.62 53.6637 467.74 54.1502 466.837L52.3895 465.889C51.929 466.743 51.435 467.577 50.9074 468.388L52.5843 469.478ZM54.1502 466.837C54.6366 465.935 55.0867 465.011 55.5003 464.067L53.6684 463.264C53.2763 464.159 52.8501 465.034 52.3895 465.889L54.1502 466.837ZM55.5003 464.067C55.914 463.122 56.2908 462.159 56.6309 461.176L54.7407 460.522C54.4179 461.455 54.0604 462.369 53.6684 463.264L55.5003 464.067ZM56.6307 461.176C56.9832 460.158 57.2918 459.131 57.5563 458.095L55.6185 457.6C55.3678 458.582 55.0753 459.556 54.7408 460.522L56.6307 461.176ZM57.5563 458.095C57.8207 457.06 58.0415 456.017 58.2187 454.966L56.2465 454.634C56.0786 455.629 55.8693 456.618 55.6185 457.6L57.5563 458.095ZM58.2188 454.965C58.3951 453.914 58.5277 452.858 58.6167 451.796L56.6237 451.629C56.5393 452.636 56.4136 453.638 56.2464 454.634L58.2188 454.965ZM58.6167 451.796C58.7057 450.733 58.7502 449.667 58.7502 448.596L56.7502 448.596C56.7502 449.611 56.708 450.622 56.6237 451.629L58.6167 451.796ZM58.7502 448.595C58.7494 447.525 58.7049 446.466 58.6167 445.42L56.6237 445.589C56.7072 446.578 56.7494 447.581 56.7502 448.597L58.7502 448.595ZM58.6167 445.42C58.5284 444.374 58.3954 443.342 58.2177 442.323L56.2475 442.667C56.4149 443.626 56.5403 444.6 56.6237 445.589L58.6167 445.42ZM58.2178 442.324C58.0409 441.307 57.8193 440.305 57.5529 439.317L55.6219 439.838C55.8723 440.766 56.0808 441.709 56.2474 442.667L58.2178 442.324ZM57.5529 439.317C57.2866 438.329 56.9767 437.36 56.6232 436.409L54.7484 437.105C55.0803 437.998 55.3714 438.909 55.6219 439.838L57.5529 439.317ZM56.6227 436.407C56.2795 435.488 55.9008 434.595 55.4864 433.729L53.6823 434.592C54.0704 435.403 54.426 436.241 54.7489 437.107L56.6227 436.407ZM55.4836 433.723C55.0639 432.86 54.6096 432.023 54.1206 431.211L52.4071 432.242C52.8651 433.003 53.2911 433.788 53.6851 434.598L55.4836 433.723ZM54.1202 431.21C53.1485 429.599 52.0186 428.089 50.7473 426.702L49.2729 428.053C50.4545 429.342 51.5045 430.746 52.4075 432.243L54.1202 431.21ZM50.748 426.702C50.1228 426.019 49.4625 425.368 48.7698 424.753L47.4417 426.248C48.0827 426.818 48.6936 427.42 49.2722 428.052L50.748 426.702ZM48.7685 424.752C48.0849 424.147 47.3692 423.579 46.6245 423.051L45.4679 424.683C46.154 425.169 46.8133 425.692 47.4431 426.25L48.7685 424.752ZM46.6243 423.051C45.8857 422.528 45.1186 422.046 44.3267 421.607L43.3575 423.356C44.0849 423.759 44.7895 424.202 45.468 424.683L46.6243 423.051ZM44.3267 421.607C43.5349 421.168 42.7193 420.774 41.8836 420.427L41.1156 422.273C41.8825 422.592 42.631 422.954 43.3575 423.356L44.3267 421.607ZM41.8841 420.427C40.1568 419.708 38.3505 419.195 36.5028 418.9L36.1875 420.875C37.8794 421.145 39.5335 421.614 41.1151 422.273L41.8841 420.427ZM36.5026 418.9C35.5732 418.752 34.6359 418.658 33.6956 418.62L33.614 420.618C34.4762 420.654 35.3356 420.739 36.1877 420.875L36.5026 418.9ZM33.6952 418.62C32.739 418.581 31.7814 418.597 30.827 418.668L30.9742 420.662C31.8527 420.597 32.7342 420.583 33.6143 420.618L33.6952 418.62Z" fill="#009258" mask="url(#path-16-inside-3_108_345)"/>
<path d="M30.9068 73.93C29.983 73.9075 29.0586 73.9377 28.1382 74.0203C27.2216 74.1027 26.3105 74.2377 25.4093 74.4248C24.5031 74.6141 23.6084 74.8553 22.7298 75.147C21.8376 75.4424 20.9627 75.7876 20.1092 76.181C19.2738 76.5658 18.4594 76.9946 17.6692 77.4654C16.8713 77.9409 16.0987 78.4576 15.3544 79.0134C14.5982 79.5781 13.871 80.1808 13.1756 80.819C12.4686 81.4682 11.7893 82.1564 11.1377 82.8834C10.4853 83.6113 9.86693 84.3713 9.2827 85.1634C8.69847 85.9554 8.15036 86.7764 7.63838 87.6262C7.12879 88.4873 6.6533 89.3696 6.21193 90.2732C5.77056 91.1768 5.36933 92.1101 5.00819 93.0731C4.63423 94.0658 4.306 95.0749 4.02351 96.1006C3.74103 97.1262 3.50549 98.165 3.31691 99.2171C3.12752 100.272 2.98549 101.336 2.89079 102.409C2.7961 103.482 2.74877 104.566 2.74879 105.66C2.74879 106.752 2.79613 107.835 2.89079 108.91C2.98546 109.984 3.12749 111.047 3.31691 112.098C3.5055 113.15 3.74103 114.187 4.02351 115.21C4.30599 116.233 4.63423 117.24 5.00819 118.231C5.37252 119.189 5.77376 120.12 6.21193 121.024C6.65331 121.925 7.12997 122.8 7.64192 123.647C8.15387 124.495 8.70201 125.312 9.28627 126.099C9.86969 126.889 10.488 127.645 11.1412 128.367C11.7945 129.089 12.4726 129.771 13.1756 130.413C13.8673 131.049 14.5908 131.649 15.3435 132.212C16.0879 132.763 16.8605 133.274 17.6583 133.744C18.4486 134.21 19.2631 134.634 20.0983 135.013C20.952 135.401 21.827 135.741 22.7189 136.03C24.4741 136.598 26.2889 136.962 28.1273 137.113C29.9683 137.266 31.8206 137.21 33.6489 136.946C34.5554 136.815 35.4536 136.633 36.3393 136.4C37.2273 136.166 38.1014 135.882 38.9575 135.55C39.8236 135.214 40.6707 134.831 41.495 134.403C42.2988 133.985 43.0806 133.527 43.8375 133.029C44.5987 132.528 45.3343 131.99 46.0415 131.415C46.7526 130.837 47.4391 130.222 48.1012 129.568C48.7632 128.915 49.3996 128.224 50.0103 127.496C50.625 126.767 51.2036 126.012 51.7461 125.23C52.2886 124.448 52.7966 123.641 53.2701 122.808C53.7452 121.975 54.1833 121.118 54.5846 120.238C54.9858 119.358 55.353 118.456 55.686 117.533C56.0295 116.575 56.33 115.604 56.5876 114.62C56.8452 113.636 57.0603 112.641 57.2328 111.635C57.4046 110.625 57.5338 109.606 57.6204 108.58C57.7071 107.553 57.7505 106.519 57.7504 105.475C57.7496 104.433 57.7063 103.398 57.6204 102.372C57.5346 101.346 57.4054 100.33 57.2328 99.3254C57.0611 98.3199 56.846 97.3256 56.5876 96.3425C56.3292 95.3595 56.0287 94.39 55.686 93.4343C55.353 92.5106 54.9858 91.6098 54.5846 90.7319C54.1833 89.8539 53.7432 88.9989 53.2641 88.1667C52.7906 87.3417 52.2826 86.5392 51.7401 85.7592C51.1975 84.9791 50.621 84.228 50.0103 83.5057C49.4036 82.7843 48.7689 82.0986 48.106 81.4485C47.4431 80.7985 46.7565 80.1874 46.0463 79.6152C45.3395 79.044 44.6043 78.5088 43.8435 78.0118C43.0865 77.5189 42.3047 77.0653 41.501 76.6528C40.6765 76.2294 39.8294 75.8517 38.9635 75.5213C38.1071 75.1946 37.233 74.9165 36.3454 74.6883C35.4594 74.4608 34.5611 74.2839 33.655 74.1587C32.7418 74.0328 31.8223 73.9589 30.9008 73.9372L30.9068 73.93ZM30.9008 70.9254C34.9445 71.0361 38.9104 72.0626 42.5001 73.9275C46.0673 75.7928 49.2292 78.3471 51.8027 81.4425C54.4928 84.6684 56.5878 88.347 57.9899 92.3064C60.9928 100.829 60.9928 110.121 57.9899 118.643C56.5863 122.614 54.4917 126.305 51.8027 129.547C49.2288 132.657 46.0674 135.229 42.4989 137.117C38.9139 139.004 34.9486 140.057 30.8996 140.195C26.8256 140.329 22.7756 139.521 19.0643 137.836C15.3176 136.12 11.9658 133.648 9.21886 130.576C6.30188 127.323 4.01887 123.553 2.4875 119.461C-0.829167 110.552 -0.829167 100.747 2.4875 91.8381C4.02037 87.7335 6.30293 83.9497 9.21886 80.6794C11.9649 77.5902 15.3159 75.0975 19.0643 73.3558C22.7728 71.6464 26.8248 70.8132 30.9068 70.9206L30.9008 70.9254Z" fill="#E77100"/>
<path d="M30.9043 114.074L21.4224 94.3203L23.6734 92.8541L31.4833 109.082L64.2758 70.5378L66.2608 72.6528L30.9043 114.074Z" fill="#E77100"/>
<path d="M375.99 504.061L352.517 503.969L360.086 565.304L375.99 565.383V504.061Z" fill="#9E616A"/>
<path d="M380.046 580.816L328.792 580.546V579.898C328.792 578.583 328.92 577.27 329.175 575.98C329.679 573.434 330.684 571.014 332.13 568.86C333.6 566.676 335.483 564.802 337.674 563.344C339.835 561.907 342.26 560.913 344.808 560.42C346.1 560.172 347.413 560.051 348.729 560.059L380.046 560.213V580.816Z" fill="#2F2E41"/>
<path d="M300.831 503.769L277.426 503.678L284.971 564.93L300.831 565.009V503.769Z" fill="#9E616A"/>
<path d="M304.876 580.418L253.758 580.15V579.502C253.757 578.189 253.886 576.878 254.141 575.59C254.643 573.048 255.645 570.631 257.087 568.479C258.552 566.298 260.431 564.426 262.617 562.969C264.773 561.534 267.192 560.543 269.734 560.052C271.023 559.804 272.333 559.683 273.645 559.691L304.876 559.844V580.418Z" fill="#2F2E41"/>
<path d="M299.838 253.079L260.479 399.963L274.885 540.762L306.784 541.642L299.839 414.508L339.633 351.063L348.264 542.507L377.2 540.461L393.297 375.858C398.764 363.005 402.773 349.58 405.25 335.834C407.196 325.045 408.143 314.098 408.077 303.135C408.044 295.754 407.477 288.385 406.38 281.085C405.988 278.365 405.457 275.667 404.79 273.001L393.055 261.104L299.838 253.079Z" fill="#2F2E41"/>
<path d="M351.985 277.645C345.366 277.645 339.156 277.433 333.524 277.014C327.771 276.619 322.048 275.866 316.389 274.758C311.571 273.858 306.879 272.381 302.414 270.358C298.82 268.806 295.695 266.34 293.35 263.205L293.082 262.814L303.84 192.801L315.441 114.08C316.204 108.87 318.857 104.123 322.893 100.743C326.93 97.3623 332.068 95.584 337.331 95.7466L373.664 96.8598C376.389 96.9434 379.069 97.5731 381.545 98.7117C384.022 99.8503 386.245 101.474 388.082 103.488C389.92 105.502 391.334 107.864 392.242 110.434C393.149 113.004 393.531 115.731 393.366 118.452L388.596 196.741L406.189 273.965L404.943 274.139C404.442 274.206 402.511 274.46 399.487 274.801C395.534 275.245 391.497 275.645 387.49 275.991C381.82 276.48 376.271 276.864 370.999 277.134C364.312 277.475 357.904 277.64 351.985 277.645Z" fill="#CCCCCC"/>
<path d="M331.823 81.8351C331.814 81.8351 331.804 81.8351 331.794 81.8351C331.032 81.8346 330.277 81.684 329.573 81.3919C328.869 81.0997 328.23 80.6718 327.691 80.1324C327.153 79.5931 326.725 78.9529 326.434 78.2485C326.143 77.5441 325.993 76.7892 325.994 76.027V43.6341C325.988 37.8306 327.149 32.0852 329.409 26.7395C333.833 16.3076 342.112 7.98539 352.521 3.50718C359.104 0.683572 366.284 -0.463315 373.42 0.169216C380.555 0.801746 387.422 3.19394 393.405 7.1316C399.389 11.0693 404.303 16.4295 407.707 22.7322C411.11 29.0349 412.898 36.0834 412.909 43.2465V75.6888C412.91 76.4695 412.754 77.2424 412.449 77.9614C411.853 79.364 410.738 80.4819 409.336 81.0816C408.617 81.3884 407.844 81.5477 407.063 81.5498L331.819 81.8351H331.823Z" fill="#2F2E41"/>
<path d="M389.074 32.5247C392.104 38.0605 393.427 44.3703 392.874 50.6572C392.321 56.9441 389.917 62.9261 385.966 67.8478C382.015 72.7694 376.695 76.4098 370.676 78.3093C364.658 80.2087 358.211 80.2821 352.151 78.52C348.138 77.3668 344.394 75.4288 341.135 72.8183C337.877 70.2077 335.169 66.9765 333.168 63.3118C330.144 57.7785 328.827 51.4737 329.381 45.1926C329.936 38.9114 332.337 32.9351 336.284 28.017C340.23 23.0989 345.544 19.4594 351.556 17.5573C357.568 15.6551 364.008 15.5756 370.065 17.3286C374.082 18.4775 377.83 20.4125 381.093 23.0213C384.356 25.6301 387.069 28.8608 389.074 32.526V32.5247Z" fill="#9E616A"/>
<path d="M315.72 46.2703C315.716 41.6804 316.634 37.1365 318.421 32.9087C321.919 24.6597 328.466 18.0793 336.697 14.5395C340.921 12.73 345.465 11.7885 350.059 11.7709L356.542 11.7384C356.615 11.7379 356.688 11.7378 356.761 11.7378C361.25 11.7406 365.695 12.6276 369.842 14.3481C373.989 16.0687 377.756 18.5892 380.928 21.7657C384.101 24.9421 386.617 28.7124 388.332 32.8611C390.048 37.0099 390.929 41.4559 390.926 45.9453V46.5941L377.211 46.6495L372.534 33.584L371.599 46.6747L364.515 46.706L362.157 40.1143L361.684 46.7145L315.726 46.9203L315.72 46.2703Z" fill="#2F2E41"/>
<path d="M260.504 114.415C258.393 114.931 256.42 115.898 254.719 117.25C253.389 118.302 252.252 119.576 251.359 121.017C249.597 123.868 248.821 127.218 249.149 130.554C249.315 132.239 249.772 133.882 250.5 135.411C251.397 137.316 252.688 139.009 254.288 140.378C255.888 141.748 257.76 142.762 259.78 143.355C261.801 143.947 263.924 144.105 266.01 143.816C268.096 143.528 270.097 142.8 271.881 141.681C272.013 141.597 272.143 141.51 272.272 141.423C272.401 141.336 272.527 141.246 272.652 141.155C272.777 141.064 272.9 140.972 273.021 140.878C273.141 140.784 273.261 140.688 273.38 140.592L349.063 167.528C351.392 168.356 353.927 168.405 356.286 167.668C358.645 166.932 360.701 165.448 362.144 163.442L380.087 138.599L358.394 123.991L347.01 136.923L277.748 123.145C277.672 122.966 277.594 122.787 277.513 122.61C277.432 122.432 277.347 122.255 277.259 122.079C277.17 121.903 277.078 121.729 276.983 121.555C276.888 121.381 276.787 121.208 276.682 121.037C275.029 118.367 272.574 116.289 269.668 115.099C266.762 113.91 263.554 113.67 260.504 114.415Z" fill="#9E616A"/>
<path d="M348.231 128.768C350.495 125.942 353.661 122.274 356.877 118.635C360.093 114.997 363.356 111.391 365.818 108.693C368.28 105.995 369.937 104.207 369.937 104.207C372.209 100.771 375.601 98.228 379.536 97.0092C383.47 95.7904 387.706 95.9713 391.522 97.5212C395.339 99.071 398.501 101.894 400.473 105.511C402.444 109.128 403.102 113.316 402.335 117.364C401.897 119.694 400.993 121.911 399.676 123.882C399.676 123.882 397.206 127.113 393.479 131.936C389.752 136.759 384.766 143.179 379.736 149.561C374.706 155.943 369.627 162.293 365.711 166.98C361.794 171.666 359.038 174.694 358.65 174.435L344.99 133.83C344.602 133.57 345.967 131.593 348.231 128.768Z" fill="#CCCCCC"/>
<path d="M356.339 80.8144C356.124 81.8615 356.208 82.948 356.58 83.9501C356.767 84.463 357.024 84.9472 357.345 85.3886C357.62 85.7647 357.939 86.1069 358.294 86.4082C359.346 87.2976 360.681 87.7828 362.059 87.7768C362.145 87.776 362.231 87.7736 362.317 87.7696C362.403 87.7656 362.489 87.7596 362.575 87.7516C362.661 87.7443 362.747 87.7347 362.833 87.7227C362.919 87.7106 363.006 87.697 363.092 87.6817L367.96 86.797L374.665 72.4724V85.5932L396.797 81.6088V25.9294L359.694 26.1076L360.611 27.1729C363.656 30.7475 365.655 35.0927 366.389 39.7304C367.109 44.4277 367.019 49.2137 366.122 53.8805C365.25 58.6026 363.927 63.2302 362.171 67.6995C360.636 71.6588 358.874 75.5265 356.894 79.2831C356.638 79.7651 356.452 80.2805 356.339 80.8144Z" fill="#2F2E41"/>
<path d="M99.3424 582.5H557.971C558.29 582.5 558.596 582.373 558.822 582.147C559.048 581.922 559.174 581.616 559.174 581.296C559.174 580.977 559.048 580.671 558.822 580.445C558.596 580.219 558.29 580.093 557.971 580.093H99.3424C99.0232 580.093 98.717 580.219 98.4912 580.445C98.2655 580.671 98.1387 580.977 98.1387 581.296C98.1387 581.616 98.2655 581.922 98.4912 582.147C98.717 582.373 99.0232 582.5 99.3424 582.5Z" fill="#CACACA"/>
</g>
<defs>
<clipPath id="clip0_108_345">
<rect width="559.174" height="582.5" fill="white"/>
</clipPath>
</defs>
</svg>
