<svg width="23" height="25" viewBox="0 0 40 40" fill="none" xmlns="http://www.w3.org/2000/svg">
<path d="M31.4286 10C31.4286 15.5234 26.3125 20 19.9196 20C13.6875 20 8.49107 15.5234 8.49107 10C8.49107 4.47734 13.6875 0 19.9196 0C26.3125 0 31.4286 4.47734 31.4286 10ZM25.6339 28.2812C23.25 28.8359 21.3482 30.7969 21.3482 33.125V35C21.3482 35.3281 21.5804 35.6484 21.8482 35.8828L23.2768 37.1328C23.8304 37.625 24.7411 37.625 25.2946 37.1328C25.8571 36.6484 25.8571 35.8516 25.2946 35.3672L24.2054 34.4844V33.125C24.2054 31.7422 25.5625 30.625 27.0625 30.625C28.7232 30.625 30 31.7422 30 33.125V34.4844L28.9911 35.3672C28.4286 35.8516 28.4286 36.6484 28.9911 37.1328C29.5446 37.625 30.4554 37.625 31.0089 37.1328L32.4375 35.8828C32.7054 35.6484 32.8571 35.3281 32.8571 35V33.125C32.8571 30.7969 31.0357 28.8359 28.5714 28.2812V24.125C35.1339 25.5234 40 30.6328 40 36.875V37.5C40 38.8828 38.7232 40 37.1429 40H2.85714C1.27946 40 0 38.8828 0 37.5V36.875C0 30.7031 4.86875 25.5234 11.4286 24.125V28.9297C9.36607 29.4688 7.85714 31.1406 7.85714 33.125C7.85714 35.5391 10.0982 37.5 12.8571 37.5C15.6161 37.5 17.8571 35.5391 17.8571 33.125C17.8571 31.1406 16.3482 29.4688 14.2857 28.9297V23.7656C14.5268 23.7578 14.7589 23.75 15 23.75H25C25.2411 23.75 25.4732 23.7578 25.7143 23.7656L25.6339 28.2812ZM14.9196 33.125C14.9196 34.1641 14.0446 35 12.7768 35C11.6696 35 10.6339 34.1641 10.6339 33.125C10.6339 32.0859 11.6696 31.25 12.7768 31.25C14.0446 31.25 14.9196 32.0859 14.9196 33.125Z" fill="#D27C2C"/>
</svg>
