<svg width="23" height="25" viewBox="0 0 30 30" fill="none" xmlns="http://www.w3.org/2000/svg">
<path d="M15 8.19165C14.7789 8.19165 14.567 8.27945 14.4107 8.43573C14.2544 8.59201 14.1666 8.80397 14.1666 9.02498V16.2916L19.0833 19.625C19.2678 19.7422 19.491 19.7822 19.7048 19.7364C19.9186 19.6905 20.1058 19.5625 20.226 19.3799C20.3463 19.1974 20.39 18.9749 20.3477 18.7604C20.3054 18.5459 20.1805 18.3566 20 18.2333L15.8333 15.4083V9.02498C15.8333 8.80397 15.7455 8.59201 15.5892 8.43573C15.4329 8.27945 15.221 8.19165 15 8.19165Z" fill="#009258"/>
<path d="M15 1.66675C12.6193 1.67508 10.2839 2.31709 8.23348 3.52681C6.18311 4.73653 4.49179 6.47034 3.33329 8.55008V4.33341C3.33329 4.1124 3.2455 3.90044 3.08921 3.74416C2.93293 3.58788 2.72097 3.50008 2.49996 3.50008C2.27895 3.50008 2.06698 3.58788 1.9107 3.74416C1.75442 3.90044 1.66663 4.1124 1.66663 4.33341V11.6667H8.99996C9.22097 11.6667 9.43293 11.5789 9.58921 11.4227C9.74549 11.2664 9.83329 11.0544 9.83329 10.8334C9.83329 10.6124 9.74549 10.4004 9.58921 10.2442C9.43293 10.0879 9.22097 10.0001 8.99996 10.0001H4.45829C5.50932 7.78191 7.23319 5.95174 9.38458 4.77002C11.536 3.5883 14.0053 3.11524 16.4411 3.41816C18.8769 3.72107 21.1551 4.78453 22.9515 6.4572C24.748 8.12986 25.9711 10.3265 26.4468 12.7346C26.9225 15.1426 26.6266 17.6393 25.6012 19.8695C24.5758 22.0996 22.8731 23.9495 20.7355 25.1559C18.5978 26.3623 16.1341 26.8638 13.695 26.5889C11.2558 26.3141 8.96553 25.2769 7.14996 23.6251C7.06898 23.5512 6.97424 23.494 6.87115 23.4568C6.76807 23.4195 6.65865 23.4029 6.54916 23.4079C6.43966 23.413 6.33223 23.4395 6.23299 23.4861C6.13376 23.5326 6.04466 23.5983 5.97079 23.6792C5.89692 23.7602 5.83973 23.855 5.80247 23.9581C5.76522 24.0611 5.74863 24.1706 5.75366 24.28C5.75869 24.3895 5.78524 24.497 5.83179 24.5962C5.87834 24.6954 5.94398 24.7845 6.02496 24.8584C7.62675 26.317 9.55985 27.3634 11.657 27.9069C13.7541 28.4505 15.9521 28.4748 18.0607 27.9779C20.1694 27.4809 22.1252 26.4776 23.7589 25.0549C25.3926 23.6321 26.655 21.8326 27.4369 19.8122C28.2188 17.7918 28.4966 15.6113 28.2462 13.4594C27.9959 11.3075 27.225 9.24901 26.0002 7.46204C24.7754 5.67508 23.1336 4.21347 21.2169 3.20369C19.3003 2.19391 17.1664 1.66638 15 1.66675Z" fill="#009258"/>
</svg>
