<svg width="35" height="25" viewBox="0 0 40 40" fill="none" xmlns="http://www.w3.org/2000/svg">
<path d="M6 17.5C8.20625 17.5 10 15.2578 10 12.5C10 9.74219 8.20625 7.5 6 7.5C3.79375 7.5 2 9.74219 2 12.5C2 15.2578 3.79375 17.5 6 17.5ZM34 17.5C36.2062 17.5 38 15.2578 38 12.5C38 9.74219 36.2062 7.5 34 7.5C31.7938 7.5 30 9.74219 30 12.5C30 15.2578 31.7938 17.5 34 17.5ZM36 20H32C30.9 20 29.9062 20.5547 29.1812 21.4531C31.7 23.1797 33.4875 26.2969 33.875 30H38C39.1063 30 40 28.8828 40 27.5V25C40 22.2422 38.2062 20 36 20ZM20 20C23.8687 20 27 16.0859 27 11.25C27 6.41406 23.8687 2.5 20 2.5C16.1313 2.5 13 6.41406 13 11.25C13 16.0859 16.1313 20 20 20ZM24.8 22.5H24.2812C22.9813 23.2812 21.5375 23.75 20 23.75C18.4625 23.75 17.025 23.2812 15.7188 22.5H15.2C11.225 22.5 8 26.5313 8 31.5V33.75C8 35.8203 9.34375 37.5 11 37.5H29C30.6562 37.5 32 35.8203 32 33.75V31.5C32 26.5313 28.775 22.5 24.8 22.5ZM10.8188 21.4531C10.0938 20.5547 9.1 20 8 20H4C1.79375 20 0 22.2422 0 25V27.5C0 28.8828 0.89375 30 2 30H6.11875C6.5125 26.2969 8.3 23.1797 10.8188 21.4531Z" fill="#263E4D"/>
</svg>
